<?xml version="1.0" standalone="no"?>
<!DOCTYPE svg PUBLIC "-//W3C//DTD SVG 20010904//EN"
 "http://www.w3.org/TR/2001/REC-SVG-20010904/DTD/svg10.dtd">
<svg version="1.0" xmlns="http://www.w3.org/2000/svg"
 width="1496.000000pt" height="814.000000pt" viewBox="0 0 1496.000000 814.000000"
 preserveAspectRatio="xMidYMid meet">
<metadata>
Created by potrace 1.16, written by Peter Selinger 2001-2019
</metadata>
<g transform="translate(0.000000,814.000000) scale(0.100000,-0.100000)"
fill="#000000" stroke="none">
<path d="M4490 6507 c-33 -12 -35 -15 -32 -52 2 -22 7 -53 12 -70 5 -16 14
-69 20 -116 12 -99 31 -145 78 -184 45 -38 65 -80 58 -123 -3 -20 -10 -38 -16
-42 -16 -10 -22 -88 -8 -109 20 -32 1 -102 -41 -148 -20 -24 -42 -43 -48 -43
-6 0 -13 -6 -16 -14 -3 -8 -20 -17 -37 -21 -22 -5 -29 -10 -22 -17 6 -6 42 -8
94 -4 45 4 103 9 128 11 25 1 48 3 53 4 4 1 -1 9 -10 19 -10 10 -21 14 -24 9
-4 -6 -5 30 -2 79 5 75 9 92 27 106 11 10 30 18 41 19 11 0 14 3 8 6 -7 2 -13
11 -13 18 0 8 -10 20 -22 26 -20 11 -20 13 -5 24 16 11 16 14 2 25 -12 10 -14
24 -9 59 8 51 16 61 57 61 15 0 27 6 27 13 0 6 16 25 35 40 39 31 39 37 5 112
-23 47 -31 226 -11 233 6 2 9 8 5 13 -3 5 0 9 5 9 6 0 11 11 11 23 0 19 -8 26
-39 35 -50 16 -266 14 -311 -1z"/>
<path d="M10208 6513 c-16 -2 -28 -9 -28 -14 0 -5 -7 -9 -15 -9 -10 0 -15 -10
-15 -31 l0 -32 73 6 c72 6 136 24 149 41 4 6 2 18 -3 28 -8 15 -21 18 -72 17
-34 -1 -74 -4 -89 -6z"/>
<path d="M10220 6283 c-41 -8 -77 -18 -80 -23 -3 -4 -14 -9 -25 -11 -15 -3
-21 -13 -23 -43 -3 -34 -1 -38 15 -32 27 11 185 27 200 22 7 -3 24 -1 38 4 21
8 25 16 25 49 0 56 -18 60 -150 34z"/>
<path d="M10293 5989 c-24 -24 -43 -50 -43 -56 0 -7 -7 -13 -15 -13 -8 0 -15
-7 -15 -15 0 -8 5 -15 10 -15 13 0 -8 -39 -34 -63 -11 -9 -39 -30 -63 -45 -24
-15 -46 -36 -49 -47 -4 -11 -21 -34 -39 -52 -18 -18 -36 -38 -39 -45 -5 -11
-7 -11 -12 0 -8 18 -33 -16 -34 -46 0 -13 -4 -20 -10 -17 -6 3 -14 -5 -20 -19
-5 -14 -14 -26 -20 -26 -5 0 -10 -8 -10 -18 0 -11 -9 -29 -19 -41 -11 -13 -23
-35 -26 -50 -3 -16 -19 -41 -34 -57 -16 -16 -54 -78 -86 -139 -31 -60 -61
-114 -66 -120 -5 -5 -9 -17 -9 -27 0 -10 -9 -35 -20 -55 -11 -21 -20 -44 -20
-51 0 -7 -7 -15 -15 -18 -8 -4 -15 -12 -15 -19 0 -7 -7 -26 -15 -41 -8 -16
-15 -40 -15 -54 0 -15 -5 -31 -11 -37 -10 -10 -32 -95 -49 -188 -4 -27 -13
-63 -18 -80 -5 -16 -17 -66 -26 -110 -10 -44 -24 -103 -32 -131 -8 -28 -14
-60 -14 -72 0 -12 -4 -22 -8 -22 -8 0 -16 -34 -47 -205 -20 -111 -37 -323 -39
-469 l-1 -110 28 -7 c16 -4 81 -4 145 1 64 5 248 12 407 15 160 3 313 8 341
11 l51 5 7 687 c12 1117 24 1702 36 1758 6 29 10 73 8 100 l-3 48 -42 -45z"/>
<path d="M9957 5982 c-15 -9 -27 -20 -27 -24 0 -5 -7 -8 -15 -8 -8 0 -15 -7
-15 -15 0 -8 -4 -15 -10 -15 -11 0 -94 -56 -126 -85 -12 -11 -41 -33 -63 -49
-23 -17 -41 -33 -41 -38 0 -4 -7 -8 -15 -8 -8 0 -15 -6 -15 -14 0 -8 -8 -17
-18 -20 -23 -8 -82 -62 -82 -75 0 -6 -4 -11 -10 -11 -5 0 -10 -7 -10 -15 0 -7
-6 -18 -13 -22 -7 -4 -31 -29 -52 -55 -22 -27 -46 -50 -55 -53 -8 -3 -28 -24
-43 -47 -15 -23 -44 -61 -65 -83 -20 -22 -43 -52 -51 -67 -8 -15 -21 -30 -30
-33 -9 -3 -24 -23 -33 -44 -10 -22 -30 -54 -45 -73 -16 -18 -37 -50 -48 -70
-11 -21 -23 -38 -26 -38 -4 0 -14 -16 -23 -35 -9 -19 -21 -35 -26 -35 -6 0
-10 -7 -10 -15 0 -8 -4 -15 -8 -15 -5 0 -22 -25 -38 -56 -16 -30 -41 -79 -56
-107 -15 -29 -28 -58 -28 -64 0 -7 -4 -13 -10 -13 -5 0 -10 -7 -10 -15 0 -19
-31 -78 -53 -100 -9 -9 -17 -26 -17 -38 0 -13 -6 -31 -14 -42 -7 -11 -23 -49
-35 -85 -23 -70 -35 -98 -57 -143 -8 -16 -14 -36 -14 -46 0 -9 -7 -26 -15 -37
-8 -10 -15 -27 -15 -37 0 -27 -24 -97 -32 -97 -5 0 -8 -13 -8 -29 0 -16 -6
-59 -14 -97 -13 -64 -33 -222 -55 -439 -7 -66 -6 -92 2 -98 7 -4 48 -4 92 -1
44 4 94 8 110 9 17 1 40 -2 52 -8 17 -8 35 -5 74 12 29 11 84 24 123 27 39 2
90 7 114 10 l42 5 1 137 c0 75 4 173 10 217 5 44 13 145 19 225 5 80 14 165
19 190 6 25 10 69 11 98 0 28 4 52 9 52 5 0 12 19 16 43 9 60 60 274 90 377 9
30 21 73 27 95 6 22 19 52 30 67 10 14 18 36 18 47 0 12 9 30 20 41 11 11 20
25 20 31 0 16 39 97 50 104 5 3 10 15 10 25 0 10 20 56 44 102 65 126 79 148
105 177 12 14 30 43 38 64 8 20 19 37 23 37 4 0 18 19 30 43 41 81 51 97 61
97 5 0 9 8 9 18 0 10 10 28 23 40 41 39 57 59 57 69 0 13 71 108 105 139 33
31 29 38 -8 16z"/>
<path d="M10733 5865 c3 -11 8 -37 12 -57 3 -21 10 -38 15 -38 6 0 10 -16 10
-35 0 -24 5 -35 15 -35 8 0 15 -6 15 -14 0 -8 6 -16 14 -19 8 -3 26 -30 41
-59 14 -29 37 -71 50 -93 41 -70 55 -98 55 -112 0 -7 6 -24 14 -36 8 -12 17
-39 20 -59 4 -21 12 -43 19 -50 15 -16 34 -71 42 -123 11 -75 38 -190 62 -273
18 -61 27 -124 34 -235 10 -187 11 -266 1 -251 -4 7 -18 14 -32 15 -19 3 -26
11 -28 32 -2 15 -9 27 -18 27 -8 0 -14 5 -14 10 0 6 -7 10 -15 10 -8 0 -15 7
-15 15 0 8 -4 15 -8 15 -4 0 -14 16 -21 35 -7 19 -19 35 -26 35 -8 0 -17 11
-21 24 -3 13 -16 29 -30 36 -13 8 -24 17 -24 22 0 4 -27 8 -59 8 -64 0 -94 7
-86 20 3 5 1 11 -5 15 -5 3 -10 15 -10 26 0 17 -3 18 -20 9 -26 -14 -40 -5
-40 25 0 18 6 25 28 27 l27 4 -30 8 c-60 15 -61 16 -45 26 24 15 3 24 -32 14
-26 -8 -32 -15 -30 -32 2 -12 -2 -22 -9 -22 -7 0 -10 -10 -6 -28 3 -15 2 -34
-4 -42 -8 -13 -9 -13 -9 0 0 9 -3 11 -10 4 -7 -7 -13 -232 -17 -641 l-6 -630
254 -11 c140 -7 299 -17 354 -23 55 -6 128 -13 163 -16 l62 -5 0 159 c1 373
-48 862 -117 1168 -36 163 -97 373 -122 422 -4 10 -14 34 -21 53 -34 97 -57
151 -68 162 -7 7 -12 18 -12 25 0 7 -4 13 -10 13 -5 0 -15 18 -21 40 -7 22
-15 40 -19 40 -4 0 -15 20 -25 45 -9 25 -22 51 -29 58 -7 6 -24 38 -39 70 -15
31 -32 57 -37 57 -6 0 -10 10 -10 23 0 14 -14 36 -35 54 -19 17 -35 37 -35 43
0 7 -10 24 -21 38 -17 22 -20 23 -16 7z"/>
<path d="M12080 5282 c0 -20 -7 -33 -25 -42 -25 -13 -35 -40 -15 -40 6 0 10
-6 10 -14 0 -8 16 -31 35 -52 19 -20 35 -43 35 -50 0 -20 66 -19 74 1 6 17 32
20 41 5 11 -17 -4 -46 -30 -60 -28 -15 -33 -35 -10 -44 8 -3 15 -13 15 -21 0
-18 23 -45 38 -45 5 0 23 7 40 16 18 8 36 13 42 9 19 -12 10 -35 -20 -50 -37
-19 -39 -47 -7 -89 13 -17 27 -42 30 -56 4 -14 15 -35 25 -48 16 -21 22 -22
62 -13 51 11 62 3 51 -38 -6 -20 -15 -27 -42 -31 l-34 -5 21 -21 c12 -12 29
-43 39 -70 10 -27 23 -55 28 -62 5 -6 13 -27 16 -45 6 -31 9 -32 59 -35 37 -2
52 -7 52 -18 0 -10 -12 -14 -40 -14 -37 0 -40 -2 -40 -27 0 -16 7 -40 14 -55
8 -16 18 -49 22 -75 3 -27 11 -54 16 -60 12 -15 64 -17 73 -3 3 6 15 10 26 10
10 0 19 -4 19 -10 0 -5 -4 -10 -10 -10 -5 0 -10 -6 -10 -14 0 -8 -16 -16 -40
-20 l-40 -6 6 -43 c4 -23 10 -44 13 -47 11 -9 31 -60 31 -79 0 -25 25 -33 78
-25 59 9 54 -15 -7 -36 -41 -14 -42 -16 -37 -50 2 -19 10 -59 17 -87 l13 -53
53 0 c65 0 65 -23 0 -36 l-42 -9 -3 -83 c-3 -92 5 -112 45 -112 18 0 24 -4 19
-15 -4 -12 3 -15 29 -15 19 0 35 4 35 9 0 5 -10 7 -22 5 -21 -4 -22 -4 -3 5
33 16 57 13 53 -6 -3 -15 -17 -19 -73 -23 l-70 -5 -9 -94 c-8 -92 -8 -94 17
-117 15 -13 31 -24 37 -24 6 0 18 -4 28 -9 9 -5 25 -12 35 -15 9 -3 17 -11 17
-17 0 -8 -13 -9 -42 -4 -24 3 -58 9 -75 12 l-33 5 0 -93 c0 -71 -4 -97 -16
-110 -11 -12 -20 -50 -26 -111 -5 -51 -11 -94 -13 -96 -8 -8 -4 160 5 182 7
20 5 25 -13 30 -12 3 -25 6 -29 6 -5 0 -8 -41 -8 -91 0 -67 4 -94 15 -105 8
-9 15 -20 15 -25 0 -5 -7 -12 -15 -15 -12 -5 -15 -25 -15 -95 0 -53 4 -89 10
-89 6 0 10 -11 10 -25 0 -14 -4 -25 -10 -25 -15 0 -13 -187 3 -194 10 -5 10
-7 0 -12 -9 -4 -13 -28 -13 -71 0 -63 -1 -65 -30 -76 -16 -6 -30 -15 -30 -19
0 -4 -7 -8 -15 -8 -32 0 -47 -46 -44 -127 3 -66 8 -82 27 -101 32 -32 52 -22
52 27 0 67 34 64 36 -2 1 -40 22 -66 36 -44 5 8 8 7 8 -5 0 -9 16 -32 35 -52
28 -29 42 -36 72 -36 21 0 76 -7 123 -15 47 -8 101 -15 121 -15 20 0 49 -6 65
-14 16 -7 63 -17 104 -20 41 -4 78 -12 82 -19 6 -9 8 -9 8 1 0 6 11 12 25 12
14 0 25 -4 25 -10 0 -5 15 -12 33 -15 29 -6 33 -10 29 -31 -2 -13 0 -24 6 -24
15 0 34 28 27 40 -4 6 6 10 27 10 54 0 76 -10 89 -41 11 -28 37 -35 31 -9 -2
7 3 10 11 7 11 -4 13 0 10 14 -4 14 0 19 16 19 19 0 21 -5 21 -65 0 -36 -4
-65 -9 -65 -5 0 -8 -17 -8 -37 l2 -37 48 3 c29 1 47 -2 47 -8 0 -6 -21 -11
-49 -11 l-49 0 -1 -129 c-1 -137 0 -141 50 -141 24 0 25 -27 2 -33 -10 -3 37
-5 104 -6 67 0 134 -6 150 -12 15 -7 93 -16 173 -20 217 -13 382 -27 407 -34
12 -4 29 -3 38 2 18 11 95 -5 95 -19 0 -4 20 -8 45 -8 24 0 66 -4 92 -9 26 -5
83 -12 126 -15 l77 -4 0 1809 c0 995 -1 1809 -2 1809 -199 17 -380 29 -435 30
-56 0 -77 4 -91 18 -29 27 -60 42 -86 42 -14 0 -27 4 -31 9 -3 6 -44 22 -90
36 -47 15 -85 30 -85 34 0 14 -103 34 -210 42 -117 8 -185 20 -214 36 -14 8
-27 8 -43 0 -25 -11 -163 9 -163 25 0 4 -11 8 -24 8 -13 0 -41 7 -61 16 -21 9
-66 20 -99 25 -34 6 -70 16 -81 23 -11 7 -35 17 -53 20 -17 4 -32 11 -32 15 0
8 -99 51 -118 51 -19 0 -125 53 -137 68 -15 19 -77 33 -187 42 -104 9 -229 36
-239 52 -4 6 -24 14 -45 18 -22 5 -66 18 -98 29 -33 12 -79 21 -104 21 -41 0
-90 19 -120 48 -19 17 -22 15 -22 -16z m673 -3241 c9 -27 17 -60 17 -75 0 -20
5 -26 23 -27 15 0 17 -2 7 -6 -21 -8 -30 -24 -30 -55 0 -24 -4 -28 -27 -28
-36 1 -59 33 -68 93 -4 26 -11 50 -16 53 -19 11 -9 35 14 32 17 -2 26 5 37 29
8 18 17 33 20 33 3 0 13 -22 23 -49z"/>
<path d="M6560 5239 c-25 -4 -70 -8 -101 -8 -31 -1 -93 -8 -137 -16 -57 -11
-166 -16 -382 -19 -214 -2 -304 -6 -309 -15 -4 -6 -43 -16 -87 -21 -43 -6 -95
-15 -114 -20 -19 -6 -47 -10 -63 -10 -15 0 -36 -5 -46 -12 -18 -11 -18 -13 -3
-36 8 -13 25 -28 36 -33 12 -5 35 -18 51 -29 17 -11 36 -23 43 -26 6 -3 12
-11 12 -17 0 -17 63 -68 78 -62 7 3 11 1 8 -4 -8 -13 39 -41 69 -41 25 0 34
-14 15 -25 -15 -9 4 -38 34 -55 14 -7 26 -19 26 -27 0 -7 5 -13 10 -13 6 0 10
6 10 13 0 8 3 8 9 -2 5 -8 7 -20 4 -27 -5 -14 26 -54 44 -54 6 0 14 -8 17 -18
4 -10 28 -40 54 -68 26 -27 58 -66 72 -87 14 -20 33 -40 43 -43 10 -3 34 -30
54 -60 20 -30 40 -54 44 -54 5 0 9 -5 9 -10 0 -14 72 -110 82 -110 4 0 8 -5 8
-11 0 -7 10 -21 23 -33 12 -12 35 -37 50 -56 22 -28 30 -32 37 -21 7 12 14 8
35 -17 15 -18 31 -30 36 -26 5 3 9 0 9 -5 0 -18 -52 -12 -66 6 -7 10 -15 15
-18 12 -3 -3 5 -19 19 -35 14 -16 28 -37 31 -48 6 -20 41 -74 76 -120 26 -34
40 -57 63 -106 92 -199 116 -244 131 -253 8 -4 14 -17 14 -28 0 -12 6 -33 14
-47 8 -15 22 -47 31 -72 10 -25 24 -59 31 -77 8 -17 14 -40 14 -51 0 -12 4
-23 9 -27 5 -3 13 -20 16 -38 4 -17 13 -45 20 -62 8 -16 19 -49 25 -72 6 -24
14 -43 18 -43 5 0 16 -28 26 -62 10 -35 22 -74 26 -88 5 -14 13 -47 18 -75 11
-57 27 -127 48 -201 8 -28 14 -64 14 -81 0 -16 4 -43 10 -59 13 -38 38 -177
51 -284 5 -46 14 -87 19 -90 5 -3 12 -44 15 -90 11 -152 25 -219 47 -231 18
-9 19 -17 14 -58 l-6 -48 242 -12 c134 -6 284 -17 335 -23 51 -6 104 -7 119
-4 35 9 272 23 604 36 145 6 266 14 270 19 3 5 91 14 195 20 105 7 197 14 205
16 8 2 87 9 175 15 88 5 207 15 265 20 58 6 183 15 279 19 144 7 175 12 183
25 11 20 38 21 38 1 0 -10 11 -15 35 -15 19 0 35 5 35 10 0 6 19 10 43 10 23
0 66 3 95 6 l52 7 0 78 c0 56 -4 79 -12 80 -7 0 -37 0 -65 -1 -32 -1 -53 3
-53 9 0 6 5 11 11 11 6 0 8 7 5 16 -12 31 12 43 67 37 29 -3 60 -10 69 -15 15
-7 17 -4 12 24 -4 18 -13 46 -20 62 -8 16 -14 36 -14 44 0 23 29 -17 30 -40 0
-10 7 -32 16 -51 15 -31 18 -33 57 -27 23 3 49 2 58 -3 9 -6 43 -6 85 -1 64 8
69 11 66 32 -2 28 -24 52 -46 52 -9 0 -16 6 -16 13 0 14 51 40 59 31 3 -4 0
-9 -6 -11 -18 -6 -16 -33 1 -33 8 0 17 -8 19 -17 4 -17 5 -17 6 0 0 9 8 17 16
17 22 0 18 22 -9 44 -16 13 -21 26 -18 47 4 27 2 29 -32 29 -28 0 -36 4 -36
18 0 14 8 19 31 20 39 1 41 4 34 35 -4 16 -19 31 -36 39 -36 16 -37 26 -4 38
26 10 50 54 39 71 -3 5 -18 9 -35 9 -22 0 -29 5 -29 20 0 16 7 20 35 20 28 0
35 4 35 20 0 19 -46 70 -65 70 -5 0 -3 4 4 9 11 7 21 3 38 -15 26 -28 36 -30
57 -8 14 14 14 18 -6 44 -12 16 -25 27 -30 24 -5 -3 -6 6 -2 20 5 22 2 25 -30
31 -29 6 -36 12 -36 31 0 21 5 24 35 24 41 0 46 19 15 50 -11 11 -16 20 -11
20 5 0 14 -7 21 -15 7 -8 16 -12 22 -9 5 3 6 -5 2 -20 -6 -25 -5 -26 45 -26
l51 0 0 41 c0 39 -1 41 -25 35 -14 -4 -25 -2 -25 4 0 5 9 10 19 10 21 0 31 19
31 61 0 22 -6 30 -24 35 -45 11 -71 1 -71 -27 0 -14 -4 -26 -11 -26 -6 0 -9
11 -6 23 3 18 -2 26 -22 34 -14 5 -26 14 -26 20 0 16 27 23 94 24 l61 1 3 61
c2 50 6 63 21 67 27 7 42 -26 35 -75 -6 -33 -4 -44 11 -55 27 -19 56 -16 62 7
3 11 9 20 14 20 5 0 9 -9 9 -20 0 -16 7 -20 34 -20 52 0 66 9 66 42 0 30 -13
50 -40 61 -9 3 -4 6 13 6 22 1 27 6 27 27 0 18 5 24 16 22 8 -2 15 -6 15 -10
0 -4 6 -23 15 -43 9 -23 10 -35 3 -35 -13 0 -8 -52 6 -62 14 -11 73 -10 80 1
5 10 -43 61 -57 61 -5 0 -8 7 -8 15 0 8 5 15 10 15 6 0 10 -7 10 -15 0 -8 7
-15 15 -15 19 0 55 -36 55 -55 0 -10 10 -15 29 -15 32 0 43 10 47 47 2 17 -3
23 -17 23 -24 0 -15 26 12 33 11 3 19 14 19 25 0 15 5 19 21 15 12 -4 18 -11
15 -20 -3 -8 -2 -23 4 -32 5 -10 6 -22 2 -26 -10 -10 -9 -49 3 -57 6 -4 20 -8
32 -8 12 0 24 -6 26 -12 3 -7 6 -1 6 15 1 33 21 37 21 4 0 -28 17 -47 42 -47
29 0 21 -18 -12 -25 -23 -5 -30 -12 -30 -31 0 -13 -9 -33 -20 -44 -22 -22 -17
-50 10 -50 16 0 18 -6 13 -34 -5 -31 -3 -34 26 -41 40 -9 40 -31 0 -39 -26 -5
-29 -9 -24 -28 4 -13 15 -35 26 -50 23 -32 11 -38 -16 -8 -23 25 -32 25 -40 0
-8 -25 19 -69 28 -45 4 8 12 15 19 15 9 0 10 -2 2 -8 -6 -4 -15 -21 -18 -38
-6 -28 -4 -32 25 -45 l33 -13 -32 -8 c-39 -10 -43 -41 -10 -84 l22 -29 -22 19
c-12 10 -28 16 -37 13 -20 -8 -20 -63 0 -71 8 -3 15 -1 15 4 0 6 5 10 12 10 9
0 9 -3 0 -12 -7 -7 -12 -22 -12 -35 0 -19 5 -23 30 -23 20 0 30 -5 30 -15 0
-9 -12 -18 -30 -21 -38 -8 -41 -44 -5 -72 14 -11 25 -26 25 -33 -1 -10 -5 -9
-14 4 -7 9 -18 17 -25 17 -6 0 -11 7 -11 15 0 21 -5 19 -40 -15 -17 -17 -35
-30 -41 -30 -6 0 -9 -12 -7 -27 2 -23 9 -29 33 -31 17 -1 39 -7 51 -13 11 -6
36 -9 55 -7 l34 3 7 360 c4 198 9 428 10 510 3 127 5 149 18 146 39 -10 175 0
190 14 9 8 21 15 27 15 6 0 14 6 16 13 4 9 6 9 6 0 1 -16 91 -18 91 -3 0 22
19 8 22 -17 2 -21 11 -29 43 -38 35 -10 37 -12 15 -16 -22 -4 -25 -10 -28 -51
l-3 -48 50 0 c47 0 50 1 57 33 12 47 11 50 -16 58 -17 5 -8 7 33 8 31 1 57 6
57 11 0 6 24 10 53 10 41 0 55 -4 65 -20 7 -11 23 -20 37 -20 14 0 25 -6 25
-14 0 -9 -8 -12 -24 -9 -19 4 -28 -1 -39 -23 -9 -18 -11 -36 -6 -49 l8 -20 1
20 c2 22 28 -97 29 -132 1 -16 -6 -24 -23 -29 -25 -6 -41 -49 -30 -79 7 -18
50 -20 58 -2 3 6 4 -6 3 -28 -2 -36 -5 -40 -29 -43 -32 -4 -31 -3 -19 -34 20
-55 22 -78 6 -78 -18 0 -20 -31 -3 -48 7 -7 20 -12 30 -12 19 0 20 -1 22 -40
1 -22 -2 -25 -31 -22 -32 3 -33 2 -33 -32 0 -51 9 -66 40 -66 l27 0 7 -117
c10 -157 11 -162 23 -174 6 -6 25 -9 44 -7 26 2 35 9 40 28 4 14 7 240 8 502
l1 477 -37 4 -38 4 38 1 c32 2 37 5 37 26 0 27 27 41 60 31 11 -3 20 -2 20 3
0 8 -102 23 -255 37 -32 3 -62 10 -65 14 -3 5 -63 14 -135 20 -71 7 -143 16
-160 21 -37 11 -175 37 -270 49 -38 5 -126 10 -194 10 -91 0 -126 4 -132 13
-7 10 -9 10 -9 1 0 -7 -7 -13 -15 -13 -8 0 -15 5 -15 10 0 6 -7 10 -15 10 -8
0 -15 -4 -15 -10 0 -5 -11 -10 -25 -10 -14 0 -25 4 -25 9 0 5 -51 11 -112 14
-123 6 -399 23 -545 35 -50 4 -106 4 -125 0 -25 -6 -811 -13 -923 -8 -59 2
-297 -12 -338 -20 -26 -6 -70 -10 -97 -10 -26 0 -50 -4 -52 -10 -2 -6 -64 -10
-153 -11 -82 -1 -172 -5 -200 -10 -27 -5 -87 -16 -133 -23 -45 -8 -88 -19 -95
-24 -7 -6 -26 -12 -42 -14 l-30 -3 0 122 c0 68 3 158 7 200 3 43 10 121 14
173 4 52 13 100 19 107 7 6 15 38 19 70 4 32 18 101 33 153 14 52 29 111 33
131 3 19 11 42 16 50 14 23 43 112 44 135 0 11 7 29 15 40 8 10 15 29 15 41 0
12 6 26 13 30 6 4 22 28 33 53 12 25 36 74 53 110 17 36 31 71 31 79 0 8 11
29 25 47 14 18 25 37 25 42 0 5 16 27 35 48 19 21 35 45 35 53 1 9 14 32 30
51 17 19 30 42 30 50 0 9 13 30 30 46 16 16 30 35 30 42 0 6 5 12 10 12 6 0
10 6 10 13 0 6 14 25 31 41 41 39 62 73 56 89 -5 14 -40 19 -222 33 -44 4 -89
11 -100 17 -11 6 -69 14 -128 17 -77 5 -112 11 -118 21 -12 20 -417 18 -429
-2 -6 -10 -42 -13 -141 -12 -112 0 -133 2 -141 16 -5 10 -19 17 -31 17 -13 0
-27 4 -32 9 -6 5 -46 16 -91 25 -66 13 -147 16 -445 15 -200 -1 -384 -5 -409
-10z m3266 -2135 c4 -14 16 -29 28 -34 21 -9 21 -9 -2 -9 -21 -1 -23 -5 -20
-43 3 -42 4 -43 41 -46 28 -2 37 0 37 12 0 9 5 16 10 16 6 0 10 -7 10 -15 0
-11 12 -15 50 -15 42 0 50 3 50 19 0 10 6 24 14 30 11 9 15 5 19 -19 6 -28 10
-30 48 -30 28 0 46 6 55 18 12 15 13 15 8 0 -4 -12 1 -17 23 -20 38 -4 45 -38
8 -38 -19 0 -29 -6 -32 -20 l-6 -21 -14 21 c-31 44 -93 17 -93 -40 0 -19 5
-22 34 -18 30 3 33 2 26 -16 -9 -25 -30 -33 -30 -12 0 30 -19 16 -26 -19 -9
-52 -1 -65 46 -65 45 0 53 19 23 52 -9 10 -12 18 -7 18 13 0 41 -33 49 -59 4
-15 15 -21 36 -21 16 0 29 -4 29 -8 0 -23 -30 -32 -102 -32 l-78 0 0 -45 c0
-45 0 -45 -35 -45 -35 0 -35 0 -35 45 0 33 4 45 14 45 49 0 16 96 -39 113 -11
4 -25 17 -30 29 -6 12 -17 24 -25 28 -8 4 -25 12 -37 18 -32 17 -111 15 -166
-4 -40 -14 -50 -23 -68 -61 -11 -24 -26 -47 -34 -50 -12 -4 -15 -25 -15 -89 0
-49 4 -84 10 -84 6 0 10 -60 10 -160 0 -100 -4 -160 -10 -160 -5 0 -10 -9 -10
-20 0 -11 5 -20 10 -20 6 0 10 -11 10 -25 0 -14 -4 -25 -10 -25 -5 0 -10 8
-10 17 0 44 -8 -1 -15 -79 l-7 -88 151 0 151 0 0 -46 0 -46 -225 4 c-124 2
-225 0 -225 -4 0 -9 -65 -10 -96 -2 -15 4 -20 11 -17 25 3 10 11 19 19 19 7 0
17 7 22 16 7 12 28 16 84 18 41 2 80 6 87 10 23 14 10 96 -15 96 -16 0 -74 55
-74 70 0 19 15 9 35 -23 12 -18 29 -32 40 -32 17 0 20 7 20 40 l0 40 -45 1
c-54 2 -108 13 -116 25 -3 5 8 9 23 9 16 0 33 4 39 10 6 6 20 6 41 -2 41 -15
63 2 63 48 0 28 -5 36 -25 44 -31 12 -32 21 -2 17 20 -2 22 2 22 43 l0 45 -50
1 c-93 1 -115 4 -115 14 0 6 10 10 23 10 13 0 28 5 35 12 15 15 16 48 2 48 -5
0 -10 5 -10 10 0 6 7 6 19 -2 10 -6 17 -18 14 -25 -9 -24 15 -41 50 -34 29 6
32 10 35 50 3 40 1 43 -17 38 -14 -3 -21 0 -21 9 0 8 -4 14 -10 14 -5 0 -10 7
-10 16 0 9 -9 18 -20 21 -21 6 -24 12 -12 29 4 7 18 -3 37 -27 40 -51 55 -50
55 6 l0 44 -82 3 c-68 2 -83 6 -86 20 -2 13 5 17 35 20 32 3 38 6 37 26 0 12
5 22 11 22 6 0 11 -10 11 -22 -1 -20 4 -23 34 -23 33 0 35 2 38 38 3 30 0 37
-15 37 -10 0 -23 11 -29 25 -11 23 -10 24 7 14 10 -5 19 -15 19 -22 0 -7 4 -6
10 3 5 8 10 32 10 53 l0 39 -45 -3 c-24 -2 -47 0 -51 4 -4 4 -22 7 -41 7 -18
0 -33 5 -33 10 0 6 12 10 28 10 40 0 56 14 50 44 -4 22 -3 24 13 15 10 -5 16
-16 13 -24 -8 -20 17 -28 49 -16 22 9 27 17 27 46 0 28 -5 38 -22 45 -23 9
-23 9 -2 9 12 1 25 9 28 18 6 15 8 15 23 0 12 -12 16 -31 14 -67 l-2 -50 46 0
c44 0 47 1 41 23 -4 17 -1 23 13 23 13 0 16 -6 13 -23 -4 -21 -1 -23 37 -23
34 0 42 4 47 24 3 13 5 37 3 52 -5 63 0 84 21 84 13 0 22 -9 26 -26z m-973
-215 c19 -2 29 -1 70 6 31 5 37 10 37 30 0 13 -4 27 -10 30 -5 3 -10 13 -10
21 0 10 12 14 45 14 25 0 45 -4 45 -10 0 -5 -4 -10 -10 -10 -5 0 -10 -9 -10
-20 0 -12 -7 -20 -16 -20 -11 0 -14 -5 -10 -16 3 -9 6 -33 6 -55 0 -32 3 -39
20 -39 11 0 20 5 20 11 0 6 11 20 24 30 23 18 44 84 37 119 -2 9 5 5 18 -9 27
-31 31 -151 5 -172 -19 -16 -44 -63 -44 -84 0 -10 10 -15 30 -15 23 0 30 -4
30 -20 0 -10 -8 -23 -17 -29 -15 -8 -15 -13 -5 -36 15 -32 16 -65 2 -65 -16 0
-12 -56 5 -70 8 -7 15 -23 15 -36 0 -20 -5 -24 -30 -24 -20 0 -30 -5 -30 -15
0 -21 25 -68 44 -84 12 -10 16 -33 16 -91 0 -95 -10 -170 -22 -170 -5 0 -16
-7 -25 -16 -12 -12 -33 -15 -90 -12 l-74 3 2 60 c2 71 -7 105 -27 105 -33 0
-49 -32 -52 -107 l-4 -73 -37 7 c-20 5 -63 8 -96 8 -77 0 -85 13 -85 141 0 74
3 94 14 94 12 0 76 89 76 106 0 3 -8 13 -17 22 -12 12 -18 13 -21 4 -6 -18
-19 -14 -25 8 -3 11 3 29 14 41 11 12 19 37 19 56 0 32 1 33 33 29 73 -10 97
-18 97 -37 0 -9 -7 -24 -15 -32 -8 -9 -24 -41 -36 -74 -11 -32 -27 -72 -35
-90 -8 -17 -14 -45 -14 -61 0 -17 -4 -34 -10 -37 -12 -8 -13 -75 -1 -94 8 -12
13 -12 36 3 15 10 30 27 32 37 3 10 11 19 18 19 22 0 62 72 95 173 18 53 43
108 55 121 31 34 38 71 24 127 -15 56 -29 64 -96 54 -37 -5 -169 -9 -220 -6
-7 1 -13 8 -13 17 0 14 7 15 40 10 37 -6 40 -5 40 17 0 34 -40 90 -70 98 -14
4 -20 7 -14 8 6 1 14 23 18 51 5 34 13 53 26 60 10 5 21 22 23 38 4 27 4 27 4
-3 1 -57 3 -61 31 -93 45 -50 54 -43 50 40 -3 70 -2 72 22 78 16 4 27 15 30
30 3 14 6 -3 8 -37 2 -40 7 -63 15 -64z m-460 31 c7 0 6 -4 -2 -9 -12 -8 -11
-13 10 -30 l24 -21 -22 -6 c-19 -5 -23 -13 -23 -49 0 -25 5 -46 13 -49 8 -3 7
-8 -5 -16 -27 -17 -24 -78 4 -89 l22 -8 -21 -11 c-27 -15 -31 -87 -5 -102 16
-9 16 -9 0 -10 -11 0 -18 -8 -18 -21 0 -11 -4 -18 -8 -15 -10 6 -8 118 2 134
5 9 1 42 -19 138 -6 28 -31 37 -50 18 -13 -14 -15 -11 -15 24 0 44 13 59 58
68 29 6 32 10 33 48 1 22 3 33 6 24 2 -10 10 -18 16 -18z m1625 -423 c3 -38 6
-45 20 -40 9 3 14 3 10 -2 -4 -4 -3 -13 2 -20 6 -7 6 -23 0 -44 -9 -32 -8 -32
20 -29 16 1 30 -2 30 -7 0 -5 -8 -10 -18 -10 -13 0 -18 -10 -20 -42 l-3 -42
45 -6 c58 -9 59 -23 4 -27 l-43 -3 -5 -94 -5 -95 -32 -3 -33 -4 0 261 c0 205
3 261 13 258 6 -3 13 -25 15 -51z m-2358 -394 c27 -19 49 -43 50 -56 0 -5 -4
-5 -10 -2 -5 3 -10 -2 -10 -12 0 -10 -15 -33 -34 -51 -24 -22 -33 -38 -29 -52
3 -11 9 -20 14 -20 17 0 9 -19 -11 -25 -25 -8 -25 -19 -3 -45 11 -13 30 -20
52 -20 52 0 33 -8 -34 -14 -33 -3 -81 -10 -108 -15 -55 -10 -66 -2 -31 23 27
21 33 56 9 56 -8 0 -15 4 -15 9 0 5 7 11 15 15 8 3 15 17 15 31 0 14 -7 28
-15 31 -21 8 -19 69 2 105 16 27 70 57 103 58 9 1 27 -7 40 -16z m1265 -113
c3 -5 25 -10 48 -10 31 0 38 3 27 10 -11 7 5 10 53 10 38 0 67 -4 67 -10 0 -6
34 -10 81 -10 l80 0 -3 -32 c-3 -31 -5 -33 -38 -31 -49 4 -55 4 -145 -3 -45
-3 -76 -2 -72 2 5 5 12 9 15 10 4 0 14 3 22 7 8 3 40 10 70 16 l55 10 -70 -4
c-114 -8 -209 -20 -223 -29 -8 -5 -21 -1 -33 10 -19 17 -20 17 -25 -3 -5 -18
-15 -21 -77 -25 -40 -2 -73 -1 -75 4 -5 12 -32 10 -32 -2 0 -5 -7 -10 -15 -10
-8 0 -15 6 -15 13 0 14 35 47 50 47 6 0 10 4 10 9 0 5 28 12 62 16 51 6 64 5
73 -9 13 -18 35 -22 35 -6 0 6 11 10 25 10 14 0 25 5 25 10 0 6 4 10 9 10 6 0
13 -4 16 -10z m-349 -62 c3 -27 1 -28 -45 -28 -27 0 -76 -3 -110 -6 -51 -6
-59 -9 -49 -21 17 -21 -6 -33 -62 -33 -74 0 -90 8 -90 44 0 17 4 36 8 42 14
20 97 32 221 30 l124 -1 3 -27z"/>
<path d="M4372 5150 c-7 -11 -17 -20 -22 -20 -11 0 -170 -155 -170 -165 0 -10
-22 -29 -57 -50 -17 -10 -41 -36 -53 -57 -12 -21 -33 -50 -46 -63 -13 -13 -24
-27 -24 -30 0 -8 -46 -69 -78 -104 -13 -14 -30 -33 -38 -42 -8 -9 -14 -21 -14
-27 0 -6 -9 -16 -20 -22 -11 -6 -30 -31 -42 -56 -11 -25 -30 -51 -40 -57 -11
-7 -26 -26 -34 -43 -8 -17 -23 -40 -32 -50 -9 -11 -26 -36 -37 -57 -11 -20
-29 -47 -40 -60 -11 -12 -27 -35 -35 -51 -31 -60 -35 -66 -52 -72 -10 -3 -18
-10 -18 -17 0 -19 -42 -101 -65 -127 -12 -14 -33 -51 -45 -82 -13 -32 -27 -58
-31 -58 -4 0 -10 -16 -13 -36 -4 -19 -14 -38 -22 -41 -7 -3 -14 -11 -14 -19 0
-7 -13 -42 -30 -76 -16 -34 -30 -69 -30 -79 0 -9 -7 -22 -15 -29 -8 -7 -15
-19 -15 -27 0 -8 -6 -27 -13 -41 -8 -15 -21 -42 -30 -60 -9 -19 -17 -44 -17
-56 0 -12 -7 -31 -15 -42 -8 -10 -15 -26 -15 -36 0 -9 -3 -18 -8 -20 -12 -5
-59 -127 -72 -188 -7 -30 -19 -72 -26 -93 -8 -20 -14 -49 -14 -63 0 -14 -6
-38 -14 -52 -13 -26 -32 -90 -42 -142 -15 -79 -29 -136 -34 -140 -19 -17 -85
-434 -91 -580 l-4 -85 175 3 c96 2 285 8 420 13 135 5 370 9 522 9 212 0 278
3 281 13 4 10 6 10 6 0 1 -7 7 -13 15 -13 31 0 46 171 47 530 0 168 4 409 10
535 5 127 12 367 15 535 4 168 10 307 14 310 5 3 11 66 14 140 3 74 10 236 15
360 5 124 14 250 20 280 5 30 15 150 21 265 6 116 14 220 17 233 4 19 1 22
-24 22 -17 0 -33 -8 -41 -20z"/>
<path d="M4880 5107 c7 -20 7 -34 0 -48 -7 -12 -7 -19 -1 -19 5 0 11 6 14 13
2 6 3 2 1 -9 -3 -16 15 -40 65 -90 38 -37 79 -87 91 -111 12 -24 25 -43 30
-43 5 0 14 -17 21 -37 15 -46 40 -82 56 -83 6 0 15 -10 19 -22 3 -13 19 -42
35 -66 16 -24 29 -45 29 -49 0 -3 14 -25 30 -50 17 -24 30 -50 30 -57 0 -8 7
-19 15 -26 8 -7 15 -18 15 -26 0 -7 8 -19 18 -26 9 -7 32 -44 50 -83 19 -38
38 -77 43 -85 5 -8 14 -27 20 -42 6 -16 15 -28 20 -28 5 0 9 -6 9 -12 0 -13
59 -139 70 -148 12 -11 30 -51 30 -67 0 -10 7 -27 15 -37 8 -11 15 -30 15 -43
0 -13 6 -36 14 -51 12 -25 35 -101 57 -192 4 -19 17 -66 29 -105 12 -38 25
-92 30 -120 5 -27 14 -51 20 -53 5 -2 10 -16 10 -30 0 -38 42 -233 80 -373 6
-20 10 -55 10 -77 0 -22 5 -53 11 -69 11 -29 19 -113 38 -383 27 -373 30 -400
45 -415 8 -8 24 -15 35 -15 17 0 20 5 16 28 -3 15 -9 123 -15 239 -6 117 -15
224 -20 238 -6 15 -10 53 -10 86 0 33 -4 59 -10 59 -5 0 -10 14 -10 31 0 18
-4 48 -9 68 -14 56 -33 160 -41 231 -5 36 -13 83 -19 105 -46 178 -91 378 -98
443 -3 28 -9 52 -13 52 -4 0 -13 21 -20 48 -6 26 -16 56 -20 67 -4 11 -18 54
-30 95 -12 41 -26 83 -31 92 -5 10 -9 26 -9 37 0 10 -7 24 -15 31 -8 7 -15 19
-15 27 0 22 -59 143 -70 143 -6 0 -10 5 -10 11 0 12 -100 221 -109 229 -10 8
-71 129 -71 141 0 7 -8 19 -17 28 -21 19 -53 77 -53 96 0 7 -6 15 -13 18 -7 3
-24 28 -37 56 -14 28 -28 51 -32 51 -5 0 -8 5 -8 11 0 6 -7 17 -15 25 -8 9
-15 24 -15 35 0 11 -12 27 -28 36 -24 14 -62 75 -62 99 0 3 -11 15 -24 25 -14
11 -28 30 -32 42 -7 24 -67 87 -83 87 -6 0 -16 10 -22 22 -6 12 -23 33 -36 47
l-24 26 11 -28z"/>
<path d="M8793 4886 c-13 -13 -23 -28 -23 -34 0 -5 -7 -12 -15 -16 -8 -3 -15
-12 -15 -20 0 -7 -6 -16 -12 -19 -7 -3 -22 -22 -33 -43 -11 -22 -30 -52 -42
-67 -12 -15 -28 -46 -34 -67 -7 -22 -22 -46 -35 -55 -12 -8 -25 -29 -29 -47
-4 -18 -14 -42 -21 -53 -8 -11 -14 -27 -14 -37 0 -10 -4 -18 -9 -18 -4 0 -11
-19 -14 -41 -3 -23 -9 -45 -14 -48 -14 -10 -43 -72 -43 -91 0 -9 -7 -23 -15
-30 -8 -7 -15 -21 -15 -31 0 -10 -9 -23 -20 -29 -11 -6 -20 -17 -20 -24 0 -8
-7 -19 -15 -26 -8 -7 -15 -22 -15 -34 0 -21 -11 -61 -42 -156 -7 -19 -15 -55
-19 -80 -4 -25 -12 -63 -18 -85 -6 -22 -20 -127 -31 -233 -11 -106 -22 -198
-26 -204 -7 -11 38 -5 86 12 14 5 37 11 51 14 26 6 26 6 33 133 4 70 11 130
15 133 5 3 11 59 14 125 3 66 3 112 1 102 -4 -13 -14 -17 -32 -15 -26 3 -27 5
-26 69 1 73 28 174 49 183 7 2 16 18 20 35 4 17 10 31 14 31 12 0 71 117 71
140 0 10 5 22 10 25 6 3 10 19 10 35 0 15 6 30 14 33 8 3 22 29 31 58 10 29
26 62 36 73 11 11 19 24 19 29 0 10 25 69 46 109 8 14 14 31 14 38 0 6 14 31
30 55 17 24 30 51 30 59 0 9 8 25 18 35 33 37 42 51 52 76 12 31 11 31 -17 1z"/>
<path d="M3575 4610 c-11 -17 -28 -33 -37 -36 -10 -3 -27 -20 -40 -37 -25 -36
-77 -87 -90 -87 -4 0 -8 -7 -8 -15 0 -14 -17 -33 -67 -75 -7 -5 -17 -10 -23
-10 -5 0 -10 -5 -10 -11 0 -7 -17 -31 -37 -54 -21 -23 -54 -61 -73 -85 -19
-24 -45 -53 -57 -64 -12 -12 -36 -48 -53 -81 -17 -33 -34 -62 -38 -65 -9 -6
-29 -38 -44 -70 -7 -14 -17 -30 -23 -36 -31 -35 -45 -55 -45 -64 0 -6 -3 -10
-8 -10 -4 0 -20 -28 -36 -62 -16 -35 -33 -65 -37 -68 -11 -8 -39 -80 -39 -101
0 -11 -4 -19 -10 -19 -10 0 -50 -84 -50 -105 0 -7 -7 -15 -15 -18 -15 -6 -55
-86 -55 -110 0 -8 -7 -20 -15 -27 -8 -7 -15 -25 -15 -41 0 -15 -7 -34 -15 -43
-8 -8 -15 -20 -15 -26 0 -7 -13 -40 -29 -74 -16 -34 -32 -76 -36 -94 -3 -18
-13 -32 -21 -32 -9 0 -14 -10 -14 -28 0 -16 -7 -37 -15 -48 -8 -10 -15 -27
-15 -37 0 -11 -6 -33 -14 -50 -7 -18 -21 -59 -31 -92 -10 -33 -22 -68 -27 -78
-5 -11 -14 -44 -20 -75 -25 -138 -51 -256 -58 -262 -6 -5 -17 -52 -44 -190 -8
-41 -23 -110 -32 -153 -10 -45 -13 -82 -8 -87 5 -5 42 -4 84 1 41 6 109 13
150 17 41 4 81 11 88 15 7 5 12 31 12 66 0 32 5 83 11 112 6 30 14 90 19 134
5 44 14 98 19 120 6 22 18 85 26 140 9 55 23 122 31 149 8 26 14 60 14 74 0
31 21 92 32 92 4 0 8 10 8 22 0 12 6 44 14 72 8 28 22 80 31 116 9 36 21 73
26 82 5 10 13 34 18 55 5 21 15 54 22 73 7 19 21 60 32 90 11 30 23 63 28 72
5 10 9 25 9 33 0 8 4 15 9 15 5 0 17 22 26 50 9 27 21 52 26 55 5 4 9 14 9 25
0 10 13 44 29 76 15 33 31 73 35 89 10 41 67 155 77 155 5 0 9 9 9 19 0 11 5
23 11 26 5 4 14 17 20 28 5 12 13 29 18 37 5 8 26 49 46 90 46 95 68 134 78
138 4 2 7 10 7 18 0 8 7 14 15 14 8 0 15 6 15 13 0 7 9 23 20 35 11 12 20 24
20 28 0 3 14 26 30 51 17 24 30 47 30 50 0 3 13 22 29 42 17 21 35 49 42 64 7
15 16 27 21 27 11 0 29 18 46 48 18 33 0 26 -23 -8z"/>
<path d="M10 2101 l0 -2101 583 1 c320 0 576 3 570 6 -7 2 -13 13 -13 24 0 12
-7 19 -20 19 -11 0 -20 5 -20 10 0 6 -7 10 -15 10 -8 0 -15 5 -15 10 0 6 -11
21 -25 34 -14 13 -25 28 -25 35 0 6 -6 11 -14 11 -8 0 -16 6 -19 13 -2 7 -25
22 -50 35 -25 12 -56 34 -69 47 -13 14 -28 25 -35 25 -6 0 -24 6 -40 14 -56
29 -101 46 -121 46 -11 0 -28 8 -37 17 -18 18 -83 31 -152 32 -24 1 -43 5 -43
10 0 5 122 7 292 3 251 -4 293 -3 302 10 8 10 40 17 111 22 259 18 411 25 538
26 75 0 137 4 137 9 0 13 138 21 550 30 201 5 547 16 770 25 223 9 510 20 637
24 226 8 265 14 249 41 -4 6 -44 8 -111 4 l-105 -6 -1 154 c-1 404 1 660 7
721 4 37 4 77 1 90 l-6 23 -325 2 c-285 1 -325 0 -330 -14 -4 -8 -6 -70 -6
-137 1 -66 0 -149 0 -183 -1 -38 3 -63 9 -63 6 0 11 16 11 35 0 39 16 48 23
13 3 -13 4 -5 4 17 -2 81 3 155 11 155 4 0 6 -44 6 -98 -2 -124 -16 -413 -20
-409 -2 2 -5 14 -7 28 -2 13 -11 25 -20 27 -13 3 -17 -4 -17 -27 0 -18 5 -31
13 -31 8 0 7 -3 -3 -10 -11 -7 -16 -34 -18 -110 -2 -55 -7 -100 -12 -100 -4 0
-10 -18 -14 -40 -5 -30 -11 -40 -25 -40 -10 0 -21 -6 -24 -14 -4 -11 -20 -14
-59 -12 -29 2 -67 4 -83 5 -25 1 -33 8 -47 40 -15 35 -17 78 -17 333 1 161 5
334 11 383 12 115 10 225 -5 244 -10 11 -36 13 -146 7 -74 -3 -136 -7 -137 -9
-1 -1 -5 -101 -9 -221 -3 -121 -9 -224 -12 -229 -3 -5 -7 -102 -9 -215 -3
-114 -10 -240 -16 -279 l-12 -73 -51 0 -50 0 -2 197 c-1 123 2 202 8 209 7 9
7 19 0 33 -16 29 -13 73 5 99 13 19 14 28 4 52 -7 17 -10 46 -6 67 3 21 8 95
11 165 6 147 -1 164 -64 153 -20 -3 -76 -10 -126 -15 -49 -5 -105 -13 -124
-16 -30 -6 -33 -4 -28 10 4 10 7 23 7 30 0 6 20 20 44 31 37 17 45 25 50 55
10 58 7 180 -4 180 -5 0 -10 -12 -11 -27 l-1 -28 -7 25 c-4 16 -14 25 -26 25
-14 0 -21 8 -23 28 -3 23 0 27 20 27 34 0 58 46 58 112 1 29 5 73 11 98 6 25
14 70 18 100 5 30 13 73 19 95 6 22 18 78 28 125 25 130 34 160 44 160 6 0 10
8 10 19 0 10 7 38 15 62 9 24 20 74 25 111 6 38 14 76 19 86 20 37 51 122 51
139 0 10 7 27 15 37 8 11 15 31 15 44 0 21 25 77 40 92 11 10 60 135 60 153 0
9 4 17 9 17 5 0 12 15 16 33 4 17 17 55 30 82 13 28 38 82 55 120 18 39 36 72
40 75 4 3 22 31 39 63 21 39 31 71 31 101 0 44 -1 45 -51 67 -43 20 -79 58
-79 84 0 3 23 5 50 5 43 0 50 -3 50 -20 0 -17 7 -20 51 -20 35 0 48 -3 43 -11
-4 -7 -1 -10 7 -7 8 2 23 22 34 43 20 40 61 85 76 85 5 0 9 8 9 19 0 10 7 24
15 31 8 7 15 18 15 24 0 7 9 22 20 34 23 24 42 67 33 75 -7 7 -93 -19 -106
-32 -6 -6 -19 -11 -29 -11 -10 0 -18 -4 -18 -10 0 -5 -11 -10 -25 -10 -14 0
-25 -4 -25 -10 0 -5 -11 -10 -24 -10 -12 0 -36 -12 -53 -27 -46 -44 -125 -108
-137 -112 -6 -2 -15 -10 -19 -17 -6 -10 -34 -14 -105 -14 -115 0 -443 25 -592
45 -58 8 -142 17 -187 21 -46 4 -83 10 -83 14 0 4 -21 10 -47 13 -54 6 -191
30 -303 52 -41 8 -99 18 -127 21 -29 4 -53 10 -53 15 0 12 -61 16 -640 48
-231 12 -444 29 -477 38 l-23 5 0 -2101z"/>
<path d="M12210 4065 c0 -36 4 -65 9 -65 11 0 31 -124 31 -197 0 -32 5 -89 11
-128 5 -38 14 -119 19 -180 15 -187 30 -184 26 5 -3 172 -16 303 -40 430 -9
41 -20 103 -27 138 -6 34 -16 62 -20 62 -5 0 -9 -29 -9 -65z"/>
<path d="M4870 3534 c0 -12 -6 -15 -22 -11 -12 4 -33 4 -45 1 -18 -5 -23 -13
-23 -40 0 -27 -4 -34 -20 -34 -11 0 -20 -5 -20 -11 0 -5 -4 -7 -10 -4 -14 9
-19 -25 -24 -195 -3 -85 -9 -202 -15 -260 -5 -58 -15 -261 -22 -451 -10 -284
-10 -362 1 -437 9 -64 17 -92 26 -92 8 0 14 -4 14 -10 0 -5 14 -10 30 -10 17
0 30 -4 30 -10 0 -6 42 -10 106 -10 96 0 107 2 123 22 10 11 26 22 37 23 11 0
25 5 33 9 7 5 18 3 24 -3 14 -14 111 -15 102 -1 -11 17 19 48 52 55 18 3 33
10 33 15 0 6 5 10 10 10 6 0 10 -13 10 -30 0 -20 5 -30 15 -30 8 0 15 7 15 15
0 9 9 15 25 15 15 0 25 6 25 14 0 7 -11 21 -25 30 -14 9 -25 23 -25 31 0 10
-10 15 -27 15 -21 0 -34 9 -51 36 -22 33 -47 40 -35 9 9 -26 -33 -17 -47 10
-14 27 -30 33 -30 13 0 -8 -4 -7 -10 3 -16 27 -33 272 -19 263 11 -6 22 33 13
47 -4 8 -9 7 -15 -2 -5 -9 -7 -3 -7 16 5 104 -19 203 -59 243 -7 7 -13 21 -13
30 0 21 -42 126 -52 130 -5 2 -8 10 -8 18 0 8 -8 22 -19 33 -11 11 -21 40 -25
80 -4 33 -11 61 -15 61 -4 0 -9 12 -9 28 -4 128 -16 258 -26 264 -7 4 -4 9 7
14 18 7 24 44 6 44 -7 0 -8 11 -4 30 4 19 3 30 -4 30 -6 0 -11 -7 -11 -16z"/>
<path d="M10838 2856 c-39 -12 -67 -40 -68 -67 0 -9 -7 -22 -15 -29 -8 -7 -15
-27 -15 -46 0 -31 2 -33 45 -40 25 -3 56 -3 70 0 18 5 25 2 25 -8 0 -7 -6 -14
-12 -13 -7 0 -41 -1 -75 -1 -59 -2 -63 -4 -63 -25 0 -37 19 -47 94 -48 39 0
80 -4 91 -9 19 -8 19 -9 -3 -9 -34 -1 -42 -36 -42 -176 0 -107 2 -125 17 -134
23 -12 13 -22 -15 -14 -21 5 -22 11 -22 97 0 90 -1 91 -16 59 -9 -18 -20 -33
-25 -33 -5 0 -9 -11 -9 -25 0 -14 -4 -25 -10 -25 -5 0 -10 -8 -11 -17 0 -12
-2 -13 -6 -5 -6 16 29 142 39 142 5 0 8 7 8 15 0 21 20 19 21 -2 0 -13 3 -11
10 7 14 33 7 92 -11 107 -8 7 -36 13 -62 13 l-48 0 0 -172 c0 -95 -3 -183 -6
-195 -4 -14 -2 -23 5 -23 6 0 11 10 11 23 1 12 8 33 16 47 l15 25 -5 -30 c-2
-16 -12 -59 -20 -95 -32 -131 -32 -120 3 -120 33 0 33 -2 35 80 1 54 20 86 36
60 5 -8 9 -40 7 -72 -1 -31 1 -59 4 -63 4 -3 47 -8 95 -9 49 -2 96 -5 104 -7
11 -3 16 8 21 41 l5 45 5 -45 c4 -41 6 -45 32 -45 15 -1 27 4 27 12 0 7 -7 10
-16 6 -15 -5 -16 23 -13 307 3 239 7 314 17 318 14 4 17 42 2 42 -5 0 -10 9
-10 21 0 21 -29 68 -63 102 -9 9 -45 24 -80 32 -71 17 -69 17 -119 1z"/>
<path d="M3709 1894 c-9 -11 -15 -51 -17 -120 l-4 -104 46 0 46 0 0 115 c0 93
-3 115 -14 115 -8 0 -21 2 -29 5 -7 3 -20 -2 -28 -11z"/>
<path d="M3845 1901 c-3 -6 -8 -59 -12 -119 l-6 -109 31 -6 c18 -4 38 -4 45
-1 19 7 33 210 16 230 -13 16 -65 19 -74 5z"/>
<path d="M3993 1898 c-5 -7 -11 -55 -12 -107 -1 -52 -4 -98 -7 -103 -4 -5 4
-19 17 -31 15 -14 24 -17 27 -9 2 7 12 12 22 12 26 0 30 19 30 141 l0 109 -34
0 c-18 0 -38 -6 -43 -12z"/>
<path d="M4135 1901 c-3 -6 -8 -59 -12 -120 -5 -92 -3 -112 10 -125 22 -22 74
-21 81 2 4 14 10 200 7 240 -1 14 -77 17 -86 3z"/>
<path d="M4287 1903 c-4 -3 -7 -64 -7 -134 0 -106 3 -128 16 -133 26 -10 40
-7 62 13 20 17 22 28 22 140 l0 121 -43 0 c-24 0 -47 -3 -50 -7z"/>
<path d="M4435 1898 c-3 -8 -4 -70 -3 -139 l3 -124 35 0 35 0 8 85 c4 47 6
108 5 135 l-3 50 -38 3 c-24 2 -39 -1 -42 -10z"/>
<path d="M4748 1898 c-12 -10 -17 -39 -21 -123 -3 -64 -1 -118 4 -128 7 -11
22 -17 44 -17 32 0 34 2 39 43 12 94 17 227 9 228 -4 0 -19 3 -33 5 -15 2 -33
-2 -42 -8z"/>
<path d="M3443 1892 c-7 -4 -12 -48 -15 -117 l-3 -110 35 0 35 0 8 104 c4 57
6 110 3 118 -6 14 -44 17 -63 5z"/>
<path d="M3577 1887 c-15 -10 -17 -27 -15 -117 3 -104 3 -105 28 -108 44 -4
50 8 57 117 5 83 3 105 -8 112 -20 12 -42 11 -62 -4z"/>
<path d="M4588 1883 c-2 -10 -5 -71 -7 -136 l-3 -118 38 3 c47 4 52 18 56 162
l3 101 -41 3 c-33 2 -42 -1 -46 -15z"/>
<path d="M4893 1888 c-9 -12 -10 -42 -5 -195 l2 -63 40 0 40 0 0 108 c0 59 4
114 10 122 5 9 5 19 -2 27 -13 17 -73 17 -85 1z"/>
<path d="M3318 1883 c-20 -5 -27 -35 -29 -128 -2 -99 -4 -95 40 -95 l38 0 7
105 c4 58 5 109 1 115 -6 10 -26 11 -57 3z"/>
<path d="M2964 1853 c-6 -10 -12 -47 -13 -83 -1 -36 -7 -66 -12 -68 -16 -6
-10 -34 12 -53 40 -34 51 -9 73 155 7 56 -34 90 -60 49z"/>
<path d="M10010 1581 l-55 -6 -3 -87 -3 -88 84 0 c47 0 99 -3 116 -6 l31 -6 0
101 0 101 -57 -2 c-32 -1 -83 -4 -113 -7z"/>
<path d="M4213 1564 c-3 -9 -2 -45 4 -80 l9 -64 -57 0 -56 0 -6 -37 c-8 -47
10 -76 55 -90 l33 -11 -32 -1 c-32 -1 -43 -14 -23 -26 6 -4 17 -2 24 4 21 17
26 2 26 -73 1 -39 5 -91 10 -116 10 -54 -7 -309 -22 -327 -7 -9 -7 -13 1 -13
13 0 15 -59 2 -93 -11 -28 0 -37 45 -37 14 0 27 -7 30 -15 6 -14 8 -13 19 2
11 15 26 17 87 15 45 -2 77 -8 83 -17 11 -14 83 -20 203 -17 119 3 85 22 -39
22 -92 0 -110 2 -100 13 6 8 10 45 10 83 -1 38 2 143 6 234 7 190 7 192 5 205
-5 22 1 34 14 29 10 -4 15 12 20 68 3 40 6 96 6 125 -1 28 3 54 8 57 5 3 13
26 16 51 4 24 11 47 17 50 20 13 8 42 -25 58 -50 24 -364 25 -373 1z"/>
<path d="M7056 1564 c-4 -10 3 -14 24 -14 17 0 30 -4 30 -9 0 -5 21 -14 47
-20 62 -16 90 -32 142 -80 24 -23 53 -41 63 -41 20 0 81 -40 108 -71 8 -9 48
-34 88 -55 39 -21 72 -44 72 -51 0 -7 7 -13 15 -13 8 0 15 -4 15 -9 0 -5 10
-13 23 -17 25 -7 98 -57 137 -92 14 -12 44 -32 68 -43 23 -11 42 -27 42 -35 0
-8 6 -14 14 -14 8 0 16 -3 18 -7 2 -5 23 -18 48 -31 85 -42 98 -63 60 -97 -20
-18 -22 -18 -64 4 -24 12 -46 27 -49 34 -2 6 -30 25 -62 42 -31 16 -65 40 -75
52 -10 13 -23 23 -29 23 -6 0 -11 5 -11 10 0 6 -7 10 -15 10 -8 0 -15 5 -15
10 0 6 -8 10 -19 10 -10 0 -24 7 -31 15 -7 8 -18 15 -25 15 -7 0 -15 8 -17 18
-3 9 -36 32 -73 51 -38 19 -76 42 -85 50 -31 31 -104 81 -119 81 -20 1 -51 24
-51 39 0 6 -5 11 -11 11 -6 0 -28 14 -49 30 -21 17 -42 30 -48 30 -19 0 -57
25 -88 57 -27 28 -84 61 -84 48 0 -12 100 -105 112 -105 8 0 29 -13 48 -30 19
-16 41 -29 48 -30 6 0 12 -7 12 -15 0 -9 19 -25 43 -36 64 -30 82 -42 118 -77
18 -18 40 -32 48 -32 9 0 34 -14 55 -30 22 -17 43 -30 47 -30 4 0 23 -13 41
-30 18 -16 38 -30 44 -30 7 0 27 -14 45 -31 18 -17 52 -41 75 -54 76 -42 114
-70 114 -82 0 -7 7 -13 15 -13 8 0 15 -4 15 -9 0 -5 18 -16 40 -25 28 -11 38
-20 34 -31 -4 -8 -12 -15 -19 -15 -7 0 -15 -7 -19 -15 -7 -19 -32 -20 -43 -2
-8 13 -24 25 -112 83 -25 16 -58 41 -75 57 -17 15 -37 27 -45 27 -14 0 -76 43
-96 66 -5 6 -28 20 -50 30 -22 10 -46 23 -52 29 -7 5 -24 19 -39 30 -14 11
-35 28 -45 38 -11 9 -25 17 -33 17 -8 0 -18 5 -21 10 -3 6 -14 10 -24 10 -9 0
-30 16 -45 35 -15 19 -53 47 -84 62 -32 15 -73 42 -92 60 -43 42 -65 44 -55 6
4 -16 7 -29 8 -29 1 -1 22 -12 46 -25 71 -39 78 -43 112 -77 18 -18 39 -32 47
-32 14 0 75 -40 97 -64 11 -11 22 -18 104 -64 25 -14 58 -38 72 -53 14 -16 32
-29 40 -30 8 0 28 -9 44 -20 17 -11 37 -22 47 -25 9 -3 18 -13 21 -23 2 -9 33
-31 68 -49 35 -17 84 -50 109 -73 l45 -41 -24 -19 c-28 -23 -45 -24 -65 -4 -8
8 -23 15 -34 15 -11 0 -25 7 -32 15 -7 8 -16 15 -21 15 -5 0 -23 14 -41 30
-17 17 -62 45 -100 63 -37 18 -68 38 -68 45 0 7 -11 17 -24 22 -13 5 -27 14
-31 19 -3 6 -15 11 -26 11 -10 0 -19 4 -19 8 0 4 -20 16 -45 26 -24 11 -47 26
-50 35 -5 15 -48 41 -67 41 -12 0 -71 42 -81 58 -4 6 -13 12 -20 12 -7 0 -23
12 -36 25 -13 14 -31 25 -40 25 -9 0 -28 11 -42 24 -18 16 -41 25 -70 28 l-44
3 -3 -44 c-4 -57 5 -91 23 -91 8 0 15 5 15 10 0 19 18 10 23 -11 4 -16 2 -20
-12 -16 -30 7 -51 -11 -51 -45 0 -17 -7 -39 -15 -49 -15 -15 -14 -17 10 -23
26 -7 33 -20 15 -31 -5 -3 -10 -28 -10 -56 0 -48 1 -49 30 -49 20 0 30 -5 30
-15 0 -10 -10 -15 -30 -15 -24 0 -30 -4 -30 -22 0 -13 -3 -40 -6 -60 -6 -36
-6 -37 30 -40 46 -4 52 -22 9 -26 -27 -3 -33 -8 -33 -27 0 -13 -4 -27 -10 -30
-32 -20 9 -69 49 -58 19 5 21 1 21 -40 0 -32 5 -47 16 -51 8 -3 85 -10 170
-16 86 -5 159 -12 163 -14 12 -8 175 -19 261 -19 61 1 68 -1 35 -7 -37 -7 -36
-7 22 -9 46 -1 64 -5 71 -17 5 -9 27 -20 48 -23 33 -5 39 -10 42 -34 3 -22 -1
-27 -17 -27 -25 0 -28 -25 -5 -34 15 -6 16 -18 10 -93 -4 -51 -13 -91 -20 -97
-8 -6 -16 -21 -19 -33 l-5 -23 566 0 c535 0 565 1 542 17 -14 9 -27 19 -30 22
-3 4 -18 13 -35 21 -38 19 -89 53 -93 63 -2 4 -10 7 -18 7 -8 0 -17 7 -20 15
-4 8 -12 15 -19 15 -7 0 -18 7 -25 15 -7 8 -21 15 -31 15 -11 0 -19 4 -19 9 0
6 -18 20 -40 32 -22 13 -40 28 -40 35 0 6 -8 14 -17 18 -10 3 -31 15 -48 26
-16 11 -40 24 -52 30 -13 5 -23 14 -23 20 0 5 -17 17 -37 25 -21 9 -40 19 -43
23 -11 15 -70 52 -82 52 -7 0 -19 9 -26 20 -7 11 -17 20 -22 20 -13 0 -98 58
-130 88 -13 12 -31 22 -40 22 -8 0 -32 11 -52 25 -41 28 -42 54 -3 79 21 14
27 14 54 0 17 -9 31 -19 31 -23 0 -11 98 -81 113 -81 16 0 57 -37 57 -50 0 -6
8 -10 19 -10 10 0 24 -6 30 -14 6 -8 26 -20 44 -27 18 -7 42 -22 54 -34 41
-38 52 -45 68 -45 8 0 15 -4 15 -9 0 -5 20 -17 45 -28 25 -10 45 -25 45 -33 0
-8 31 -33 68 -55 37 -21 69 -42 72 -45 3 -4 20 -15 38 -25 17 -11 32 -22 32
-26 0 -4 14 -12 30 -19 17 -7 30 -16 30 -21 0 -5 7 -9 15 -9 9 0 21 -5 28 -10
50 -43 135 -100 150 -100 9 0 17 -4 17 -10 0 -15 56 -40 89 -40 l30 0 -23 23
c-13 12 -48 34 -78 50 -29 15 -69 41 -87 57 -18 17 -38 30 -45 30 -8 0 -19 6
-25 13 -6 8 -31 24 -56 37 -25 13 -45 27 -45 32 0 4 -7 8 -15 8 -8 0 -15 4
-15 9 0 10 -38 34 -72 47 -10 3 -18 10 -18 14 0 4 -13 13 -30 20 -16 7 -30 16
-30 20 0 4 -26 23 -57 43 -32 20 -73 50 -91 66 -18 17 -42 31 -53 31 -10 0
-19 5 -19 10 0 6 -6 10 -13 10 -7 0 -30 16 -51 35 -21 19 -42 35 -47 35 -5 0
-9 5 -9 10 0 6 -9 10 -20 10 -19 0 -106 56 -143 93 -10 10 -29 22 -42 27 -31
12 -31 19 2 54 22 24 28 26 37 15 18 -23 79 -64 116 -79 19 -8 44 -23 55 -35
11 -12 35 -30 53 -40 18 -11 32 -23 32 -27 0 -4 9 -8 20 -8 11 0 29 -9 40 -20
11 -11 25 -20 30 -20 6 0 10 -4 10 -10 0 -5 4 -10 9 -10 14 0 99 -59 108 -74
8 -14 75 -56 129 -81 18 -8 45 -28 61 -44 16 -16 53 -41 81 -56 29 -15 52 -31
52 -35 0 -4 8 -10 18 -14 9 -3 42 -23 72 -45 30 -22 63 -41 73 -41 9 0 17 -3
17 -8 0 -4 34 -30 75 -57 41 -28 75 -53 75 -57 0 -5 5 -8 11 -8 6 0 17 -7 25
-15 9 -9 33 -15 57 -14 35 0 38 2 20 9 -13 5 -23 15 -23 22 0 7 -20 21 -45 31
-25 11 -45 23 -45 28 0 5 -5 9 -10 9 -11 0 -24 10 -61 42 -10 10 -26 18 -34
18 -8 0 -15 4 -15 10 0 5 -21 21 -47 34 -27 14 -61 36 -77 50 -16 14 -33 26
-39 26 -5 0 -26 14 -47 30 -21 17 -45 30 -54 30 -8 0 -20 8 -25 18 -5 10 -28
27 -50 37 -23 10 -41 22 -41 27 0 4 -6 8 -12 8 -7 0 -30 16 -51 35 -21 19 -44
35 -51 35 -18 0 -117 68 -134 92 -7 10 -24 18 -38 18 -13 0 -24 4 -24 8 0 4
-13 16 -30 25 -16 10 -46 33 -65 52 -20 18 -50 37 -66 40 -16 4 -29 11 -29 16
0 5 -6 9 -14 9 -8 0 -17 8 -20 18 -3 9 -22 26 -41 37 l-36 19 27 23 c33 28 30
28 61 3 14 -11 33 -20 42 -20 10 0 27 -9 39 -20 12 -11 26 -20 32 -20 5 0 10
-6 10 -12 1 -15 61 -55 95 -64 13 -3 35 -16 47 -28 35 -33 105 -86 114 -86 5
0 22 -11 38 -25 16 -14 32 -25 36 -25 3 0 15 -8 26 -18 10 -10 36 -26 57 -36
21 -9 41 -24 44 -32 3 -8 11 -14 19 -14 8 0 14 -4 14 -10 0 -5 4 -10 9 -10 14
0 123 -67 156 -96 17 -14 54 -37 83 -51 28 -13 52 -28 52 -31 0 -4 15 -15 33
-25 17 -10 47 -31 66 -47 18 -17 42 -30 52 -30 11 0 19 -7 19 -15 0 -8 5 -15
11 -15 6 0 28 -12 48 -27 43 -33 77 -53 90 -53 6 0 21 -11 35 -25 17 -17 36
-25 60 -25 l35 0 -24 24 c-13 13 -37 30 -54 37 -17 8 -31 17 -31 21 0 5 -5 8
-12 8 -13 0 -91 51 -96 63 -2 4 -8 7 -13 7 -11 0 -72 42 -77 53 -2 4 -9 7 -15
7 -7 0 -27 14 -46 30 -18 17 -37 30 -42 30 -4 0 -25 12 -46 26 -21 14 -48 30
-60 35 -13 5 -23 12 -23 16 0 5 -17 17 -37 28 -21 11 -40 22 -43 25 -15 15
-71 50 -80 50 -5 0 -10 6 -10 14 0 8 -12 17 -27 21 -28 7 -123 71 -123 83 0 7
-48 32 -62 32 -13 0 -69 41 -98 71 -14 14 -40 32 -57 40 -18 8 -33 17 -33 21
0 5 -6 8 -14 8 -7 0 -25 11 -40 25 -15 14 -31 25 -37 25 -5 0 -9 4 -9 8 0 4
-21 19 -47 33 -116 61 -121 65 -95 91 32 31 88 27 128 -9 49 -44 90 -72 117
-78 14 -4 33 -15 43 -26 9 -10 23 -19 31 -19 7 0 13 -6 13 -13 0 -16 42 -47
98 -71 23 -11 42 -22 42 -26 0 -8 89 -67 135 -90 17 -8 36 -21 43 -28 25 -23
97 -69 120 -76 12 -4 22 -13 22 -20 0 -6 15 -17 33 -24 18 -7 42 -20 53 -30
10 -10 34 -24 52 -31 18 -8 37 -22 43 -32 5 -11 16 -19 24 -19 7 0 15 -3 17
-7 5 -12 66 -53 78 -53 6 0 13 -7 16 -15 4 -8 10 -15 15 -15 12 0 73 -42 77
-52 2 -5 10 -8 18 -8 18 0 66 -30 77 -47 4 -7 15 -13 22 -13 8 0 15 -4 15 -9
0 -5 14 -14 30 -21 17 -7 30 -15 30 -19 0 -4 16 -13 35 -20 20 -7 47 -23 60
-37 17 -17 35 -24 62 -23 33 0 35 1 15 9 -12 5 -25 16 -28 25 -4 8 -10 15 -14
15 -4 0 -38 18 -74 40 -36 22 -70 40 -76 40 -5 0 -10 7 -10 15 0 8 -5 15 -11
15 -6 0 -34 16 -63 35 -29 19 -58 35 -63 35 -6 0 -21 11 -34 25 -13 13 -31 25
-41 25 -9 0 -18 3 -20 8 -5 11 -66 52 -78 52 -5 0 -10 6 -10 13 0 7 -20 21
-45 32 -25 11 -45 23 -45 26 0 4 -12 12 -27 18 -16 6 -39 25 -52 41 -13 17
-33 30 -45 30 -12 0 -33 11 -48 25 -15 14 -31 25 -35 25 -4 0 -21 11 -37 25
-16 14 -53 37 -83 52 -29 15 -53 31 -53 35 0 4 -7 8 -15 8 -8 0 -15 6 -15 13
0 13 -54 47 -76 47 -8 0 -14 4 -14 9 0 5 -9 13 -20 16 -11 4 -31 16 -45 28
-45 42 -63 55 -82 61 -10 3 -32 18 -49 33 -36 32 -71 54 -131 82 -46 22 -65
60 -43 87 11 12 9 23 -10 63 -18 40 -31 52 -72 71 -27 12 -59 33 -71 45 -32
34 -97 75 -118 75 -10 0 -20 8 -24 18 -6 17 -98 82 -117 82 -13 0 -38 26 -38
39 0 6 -11 13 -25 17 -13 3 -29 12 -36 20 -10 12 -3 14 37 15 l49 1 -50 9
c-32 5 -51 5 -53 -2 -3 -6 -8 -6 -15 -1 -12 9 -52 15 -187 28 -36 4 -67 10
-70 15 -3 4 -52 8 -110 10 -58 1 -112 5 -120 9 -8 4 -47 10 -87 13 -57 5 -72
3 -77 -9z m409 -82 c22 -14 53 -38 68 -54 16 -15 36 -28 45 -28 21 0 112 -62
112 -76 0 -6 26 -23 58 -37 31 -14 72 -41 90 -61 18 -20 52 -45 75 -56 56 -27
78 -41 104 -65 35 -32 46 -40 80 -54 18 -7 44 -28 58 -46 l25 -34 -22 -15
c-12 -9 -27 -16 -32 -16 -16 0 -96 43 -96 52 0 4 -6 8 -14 8 -8 0 -16 6 -19
13 -3 6 -22 21 -43 32 -53 27 -93 55 -124 86 -14 14 -41 33 -60 42 -19 9 -57
37 -84 61 -28 25 -66 51 -85 57 -20 6 -51 27 -70 45 -19 19 -40 34 -47 34 -7
0 -17 6 -21 13 -4 7 -27 21 -50 31 -24 11 -43 23 -43 28 0 5 -7 11 -16 15 -9
3 -27 16 -41 29 -14 13 -34 25 -46 27 -12 2 19 2 68 -1 73 -4 97 -10 130 -30z
m217 -8 c21 -10 38 -24 38 -31 0 -11 54 -43 73 -43 5 0 19 -9 31 -19 70 -64
93 -81 132 -97 24 -10 44 -22 44 -26 0 -4 5 -8 11 -8 7 0 21 -11 33 -24 11
-13 44 -37 71 -52 28 -15 58 -32 68 -38 19 -12 24 -46 6 -46 -6 0 -17 -7 -25
-15 -18 -17 -44 -20 -44 -5 0 6 -11 15 -25 20 -14 5 -25 13 -25 18 0 15 -87
72 -109 72 -12 0 -24 7 -27 15 -4 8 -10 15 -14 15 -4 0 -23 14 -41 32 -19 17
-52 39 -74 49 -22 11 -52 32 -68 47 -15 16 -44 38 -65 48 -20 10 -38 22 -40
27 -2 4 -10 7 -18 7 -8 0 -14 7 -14 15 0 8 -6 15 -13 15 -19 0 -80 47 -67 52
25 8 127 -9 162 -28z"/>
<path d="M4948 1393 c2 -87 9 -159 13 -161 14 -5 11 -40 -3 -45 -10 -4 -10 -6
0 -6 9 -1 12 -37 12 -145 l0 -143 46 -7 c26 -3 89 -6 140 -6 l94 0 2 83 c3
120 6 231 7 242 1 6 6 3 12 -5 6 -10 7 -69 3 -166 l-6 -152 38 -7 c22 -4 93
-9 160 -12 l121 -4 5 264 c3 145 9 270 13 278 5 7 10 34 11 60 3 58 13 55
-221 64 -93 4 -171 11 -173 16 -2 5 -66 9 -142 9 l-138 0 6 -157z"/>
<path d="M5999 1393 c0 -145 -9 -521 -14 -623 -2 -41 -5 -111 -7 -155 l-3 -80
42 -3 c33 -2 42 1 47 15 9 29 18 240 23 558 3 184 9 292 15 296 6 4 8 11 5 16
-3 5 -7 28 -8 51 l-3 42 -48 0 -48 0 -1 -117z"/>
<path d="M7890 1470 c14 -11 28 -20 33 -20 4 0 7 -7 7 -15 0 -8 7 -15 15 -15
8 0 15 -4 15 -10 0 -5 9 -10 21 -10 19 0 79 -40 120 -81 9 -9 46 -31 83 -49
36 -18 66 -39 66 -46 0 -8 7 -14 15 -14 8 0 15 -4 15 -9 0 -5 10 -13 23 -16
12 -4 36 -18 54 -31 17 -13 35 -24 40 -24 5 0 16 -8 24 -17 25 -28 51 -47 92
-65 20 -10 37 -23 37 -30 1 -7 29 -26 62 -43 34 -16 69 -36 78 -43 76 -66 97
-81 130 -91 20 -6 52 -27 71 -46 19 -19 41 -35 50 -35 9 0 19 -7 23 -15 3 -8
12 -15 20 -15 22 0 76 -33 76 -47 0 -7 6 -13 14 -13 8 0 16 -3 18 -7 5 -12 61
-49 85 -57 12 -4 39 -23 60 -43 21 -19 57 -44 81 -55 24 -11 46 -26 49 -34 3
-8 12 -14 20 -14 8 0 32 -13 52 -28 20 -16 51 -34 69 -42 18 -7 37 -21 43 -31
5 -11 16 -19 24 -19 8 0 15 -4 15 -10 0 -5 6 -10 14 -10 7 0 25 -9 39 -20 14
-11 31 -20 39 -20 7 0 26 -14 42 -30 16 -17 35 -30 42 -30 6 0 14 -7 18 -15 3
-8 13 -15 23 -15 10 0 29 -10 43 -23 38 -35 142 -104 168 -112 12 -4 34 -17
47 -31 17 -17 35 -24 62 -23 33 0 35 1 16 9 -13 5 -23 16 -23 25 0 8 -6 15
-14 15 -18 0 -76 32 -76 43 0 4 -7 7 -15 7 -16 0 -77 39 -83 53 -2 4 -9 7 -16
7 -6 0 -26 14 -44 30 -18 17 -37 30 -43 30 -5 0 -9 5 -9 10 0 6 -6 10 -14 10
-8 0 -21 6 -28 13 -7 7 -35 26 -63 42 -27 16 -51 33 -53 37 -2 4 -10 8 -17 8
-7 0 -15 8 -17 18 -3 10 -23 22 -51 30 -25 8 -47 17 -49 20 -5 11 -66 52 -78
52 -5 0 -10 6 -10 14 0 8 -10 18 -22 21 -34 10 -88 39 -88 47 0 5 -6 8 -14 8
-8 0 -21 8 -28 19 -7 10 -34 28 -59 40 -25 12 -56 31 -67 41 -12 11 -26 20
-32 20 -5 0 -10 6 -10 13 0 7 -17 21 -37 31 -21 10 -45 22 -53 27 -8 5 -25 13
-38 19 -12 5 -25 17 -28 25 -4 8 -12 15 -20 15 -8 0 -14 4 -14 9 0 5 -19 18
-42 30 -59 28 -96 52 -126 79 -14 12 -45 31 -69 42 -24 10 -43 24 -43 29 0 6
-6 11 -14 11 -8 0 -16 6 -19 14 -5 13 -61 46 -79 46 -4 0 -23 15 -41 33 -45
47 -97 83 -129 91 -16 3 -28 11 -28 16 0 6 -4 10 -10 10 -5 0 -20 10 -34 23
-38 35 -49 42 -86 57 -19 7 -50 28 -69 47 -19 18 -54 42 -78 54 -25 12 -56 32
-70 45 -14 13 -31 24 -38 24 -7 0 -18 7 -25 15 -7 8 -24 15 -39 15 l-26 0 25
-20z"/>
<path d="M8080 1470 c-12 -8 -10 -10 10 -10 14 0 36 -12 49 -25 13 -14 35 -28
50 -32 28 -7 97 -57 119 -85 7 -10 30 -23 52 -29 21 -7 58 -29 82 -50 57 -50
58 -51 101 -73 20 -11 37 -23 37 -28 0 -4 9 -8 20 -8 11 0 20 -6 20 -12 0 -12
24 -29 100 -71 19 -10 40 -25 46 -33 6 -8 16 -14 22 -14 6 0 15 -6 19 -13 4
-8 27 -22 51 -32 23 -11 42 -22 42 -27 0 -4 7 -8 15 -8 8 0 15 -6 15 -14 0 -7
14 -19 30 -26 17 -7 30 -16 30 -21 0 -5 8 -9 19 -9 10 0 35 -11 55 -25 20 -14
41 -25 46 -25 6 0 10 -6 10 -13 0 -13 13 -23 87 -64 25 -13 53 -33 63 -43 31
-31 98 -70 120 -70 11 0 20 -4 20 -10 0 -5 4 -10 10 -10 5 0 20 -10 34 -23 40
-36 55 -47 66 -47 5 0 10 -4 10 -10 0 -5 9 -10 20 -10 11 0 25 -9 32 -20 7
-11 19 -20 26 -20 8 0 31 -14 52 -30 21 -17 52 -35 69 -41 18 -6 36 -20 42
-30 5 -10 16 -19 25 -19 15 0 34 -12 62 -42 9 -10 21 -18 27 -18 6 0 27 -13
45 -30 18 -16 40 -30 47 -30 7 0 13 -4 13 -8 0 -4 12 -13 28 -19 32 -14 63
-34 77 -49 5 -6 26 -20 45 -30 19 -11 39 -24 45 -30 5 -6 25 -17 44 -24 18 -8
44 -24 57 -37 15 -15 35 -23 58 -23 l35 0 -23 23 c-12 12 -41 31 -64 41 -23
11 -42 22 -42 26 0 5 -10 10 -23 14 -13 3 -36 17 -51 31 -15 14 -32 25 -37 25
-13 0 -72 41 -77 52 -2 4 -10 8 -18 8 -8 0 -14 4 -14 9 0 5 -10 13 -22 17 -12
3 -28 13 -36 20 -7 8 -20 14 -28 14 -8 0 -14 3 -14 8 0 4 -18 18 -40 32 -22
13 -40 29 -40 36 0 6 -21 19 -47 29 -47 18 -105 53 -111 68 -2 4 -9 7 -15 7
-7 0 -17 8 -23 18 -7 10 -30 24 -52 31 -23 8 -63 33 -89 57 -26 24 -55 44 -63
44 -9 0 -21 5 -27 11 -14 14 -52 36 -75 45 -10 3 -18 12 -18 19 0 7 -22 22
-49 34 -28 11 -53 26 -56 31 -3 6 -15 10 -26 10 -11 0 -19 7 -19 18 0 17 -4
20 -76 57 -21 11 -48 28 -58 38 -11 9 -28 17 -38 17 -10 0 -18 7 -18 15 0 8
-6 15 -14 15 -8 0 -16 7 -20 15 -3 8 -13 15 -22 15 -19 0 -82 44 -102 72 -7
10 -21 18 -30 19 -9 0 -30 9 -47 20 -16 10 -40 23 -52 29 -13 5 -23 14 -23 19
0 5 -17 20 -37 32 -21 13 -39 27 -41 31 -2 4 -14 8 -27 8 -13 0 -34 14 -52 35
-17 19 -35 35 -41 35 -5 0 -12 6 -15 14 -3 8 -23 19 -44 26 -21 7 -48 23 -60
35 -12 13 -36 32 -53 41 -16 10 -30 22 -30 26 0 4 -8 8 -18 8 -10 0 -34 14
-53 31 l-34 32 45 -7 c25 -4 47 -11 48 -16 2 -6 18 -10 36 -10 18 0 41 -7 52
-15 10 -8 26 -15 34 -15 19 0 110 -62 110 -75 0 -5 34 -27 75 -48 41 -22 75
-44 75 -51 0 -12 9 -18 79 -51 22 -11 41 -23 41 -27 0 -5 6 -8 14 -8 8 0 34
-18 57 -40 24 -22 51 -40 60 -40 9 0 31 -14 49 -30 18 -17 69 -50 113 -73 44
-23 82 -50 85 -59 2 -10 11 -18 18 -18 8 0 14 -4 14 -9 0 -5 20 -17 44 -26 24
-9 60 -32 80 -51 20 -19 40 -34 45 -34 5 0 14 -7 21 -15 7 -8 23 -15 35 -15
12 0 39 -16 60 -35 20 -20 50 -42 66 -51 16 -8 29 -19 29 -24 0 -6 11 -10 25
-10 14 0 33 -8 43 -18 30 -30 85 -67 137 -92 27 -14 63 -38 80 -53 16 -16 51
-39 78 -53 26 -13 47 -28 47 -33 0 -6 10 -13 22 -17 12 -3 39 -19 61 -35 22
-16 46 -29 53 -29 7 0 17 -6 21 -14 9 -15 156 -106 172 -106 6 0 11 -4 11 -9
0 -10 144 -101 160 -101 5 0 20 -11 34 -25 17 -17 36 -25 58 -24 29 0 30 1 11
9 -12 5 -25 15 -30 23 -9 15 -101 75 -145 95 -16 6 -28 16 -28 22 0 5 -5 10
-10 10 -6 0 -41 20 -78 45 -37 25 -72 45 -79 45 -7 0 -13 4 -13 9 0 5 -20 20
-44 32 -25 12 -59 35 -77 52 -18 16 -53 38 -78 49 -25 11 -60 30 -78 44 -17
13 -36 24 -42 24 -6 0 -11 6 -11 14 0 8 -25 26 -55 40 -30 13 -67 37 -81 52
-15 14 -41 33 -58 41 -62 28 -119 63 -141 87 -12 13 -32 27 -44 31 -24 7 -92
51 -101 64 -3 5 -39 27 -80 50 -41 23 -82 50 -90 60 -8 10 -37 30 -63 45 -69
38 -101 59 -110 73 -8 13 -64 43 -81 43 -9 0 -37 21 -106 82 -9 7 -29 19 -45
27 -17 7 -37 17 -45 22 -8 5 -23 12 -32 15 -10 4 -18 12 -18 19 0 8 -9 17 -20
20 -11 3 -26 12 -32 19 -7 6 -31 20 -53 30 -22 11 -56 34 -75 53 -19 19 -54
44 -77 55 -24 11 -43 21 -43 23 0 7 136 -8 144 -16 6 -5 18 -9 27 -9 20 0 110
-57 122 -77 4 -7 36 -26 70 -43 34 -16 80 -45 102 -65 22 -19 44 -35 49 -35 5
0 24 -11 42 -25 18 -14 40 -25 48 -25 9 0 16 -6 16 -13 0 -8 10 -19 23 -25 39
-21 96 -56 114 -72 48 -41 91 -70 104 -70 8 0 30 -14 49 -32 19 -17 64 -47
100 -65 36 -19 79 -46 95 -61 38 -36 80 -62 98 -62 8 0 25 -10 38 -22 41 -38
133 -98 150 -98 9 0 36 -19 60 -43 24 -24 63 -52 87 -62 23 -10 42 -25 42 -32
0 -7 9 -13 20 -13 11 0 20 -3 20 -8 0 -4 34 -25 75 -47 41 -22 75 -46 75 -52
0 -7 7 -13 15 -13 16 0 77 -39 83 -52 2 -5 11 -8 21 -8 9 0 24 -8 33 -17 24
-26 38 -35 88 -61 61 -31 79 -43 114 -74 16 -15 55 -39 85 -55 31 -15 58 -31
59 -35 7 -15 61 -38 89 -38 l28 1 -27 15 c-16 8 -28 19 -28 24 0 6 -4 10 -9
10 -12 0 -162 91 -186 114 -11 10 -32 23 -47 28 -16 6 -28 14 -28 19 0 5 -7 9
-15 9 -8 0 -15 4 -15 10 0 5 -11 12 -25 16 -14 3 -25 10 -25 14 0 5 -10 12
-22 16 -13 4 -25 9 -28 13 -11 13 -70 51 -80 51 -5 0 -10 6 -10 14 0 7 -21 21
-47 31 -27 10 -64 31 -84 47 -20 15 -41 28 -46 28 -4 0 -14 9 -21 20 -7 11
-23 20 -37 20 -14 0 -25 5 -25 10 0 6 -7 10 -15 10 -8 0 -15 4 -15 9 0 5 -13
14 -30 21 -16 7 -30 19 -30 26 0 8 -7 14 -15 14 -8 0 -15 3 -15 8 0 8 -57 42
-71 42 -10 0 -44 26 -68 53 -8 9 -21 17 -27 17 -7 0 -14 3 -16 8 -4 10 -67 42
-83 42 -8 0 -16 8 -19 18 -5 15 -128 91 -163 100 -7 2 -13 9 -13 15 0 7 -28
27 -62 45 -35 18 -81 48 -103 67 -22 19 -45 35 -52 35 -7 0 -13 3 -13 8 0 4
-19 16 -42 27 -22 11 -43 28 -46 37 -2 10 -10 18 -17 18 -7 0 -18 7 -25 14 -6
8 -28 20 -48 27 -37 12 -46 18 -87 57 -13 12 -28 22 -33 22 -6 0 -12 6 -15 14
-3 8 -24 20 -47 27 -23 7 -47 20 -53 28 -13 18 -106 80 -152 102 -16 8 -33 18
-36 22 -5 7 -74 12 -318 22 -57 2 -106 6 -109 9 -9 9 -56 7 -72 -4z"/>
<path d="M6533 1422 c-13 -8 -14 -222 0 -222 4 0 7 12 7 26 0 31 25 58 46 50
13 -5 15 -19 12 -73 l-3 -67 43 -9 c23 -4 42 -12 42 -18 0 -5 6 -9 14 -9 10 0
16 20 21 73 3 39 11 99 17 132 17 101 18 98 -27 106 -82 14 -160 19 -172 11z"/>
<path d="M8750 1411 c8 -6 23 -11 33 -11 20 0 87 -40 114 -69 10 -10 51 -36
91 -57 39 -21 72 -43 72 -49 0 -6 9 -15 19 -20 11 -6 36 -19 58 -30 39 -20 48
-27 111 -82 20 -18 44 -33 53 -33 9 0 31 -13 49 -30 18 -16 38 -30 46 -30 8 0
14 -3 14 -7 0 -10 58 -43 74 -43 7 0 28 -15 47 -32 19 -18 61 -46 94 -63 68
-34 79 -42 107 -72 12 -13 26 -23 31 -23 4 0 15 -7 23 -15 9 -8 24 -15 34 -15
10 0 27 -10 37 -22 21 -26 123 -98 139 -98 18 0 64 -25 64 -35 1 -11 65 -55
81 -55 5 0 9 -4 9 -8 0 -4 16 -14 35 -21 19 -7 35 -17 35 -22 0 -5 5 -9 10 -9
6 0 20 -9 32 -19 11 -11 44 -31 73 -45 29 -13 55 -32 58 -40 4 -9 14 -16 23
-16 9 0 33 -14 54 -30 21 -16 45 -30 54 -30 9 0 16 -5 16 -11 0 -16 42 -48 63
-49 9 0 17 -3 17 -8 0 -4 21 -18 48 -32 26 -13 49 -27 52 -30 15 -16 132 -86
163 -96 9 -4 17 -10 17 -15 0 -13 56 -39 84 -39 l25 0 -25 25 c-14 14 -30 25
-35 25 -12 0 -102 61 -107 73 -2 4 -12 7 -23 7 -11 0 -22 7 -25 15 -4 8 -11
15 -16 15 -15 0 -158 91 -158 100 0 5 -14 11 -31 15 -17 4 -39 14 -49 24 -36
32 -49 41 -60 41 -5 0 -10 6 -10 14 0 8 -21 22 -47 32 -27 10 -64 30 -84 46
-20 15 -41 28 -46 28 -4 0 -14 9 -21 20 -7 11 -21 20 -32 20 -11 0 -20 5 -20
10 0 6 -7 10 -15 10 -16 0 -29 8 -70 46 -12 11 -39 28 -58 38 -20 9 -39 21
-42 26 -3 6 -15 10 -26 10 -10 0 -19 4 -19 9 0 5 -13 14 -30 21 -16 7 -30 18
-30 24 0 7 -16 18 -35 26 -19 7 -36 19 -39 27 -3 7 -12 13 -21 13 -8 0 -15 5
-15 10 0 6 -5 10 -11 10 -6 0 -17 6 -24 13 -29 25 -41 33 -78 52 -22 11 -47
24 -58 30 -10 5 -19 15 -19 21 0 7 -12 17 -27 23 -65 27 -122 61 -149 90 -16
17 -50 38 -76 47 -27 9 -48 20 -48 25 0 5 -7 9 -15 9 -8 0 -15 7 -15 15 0 8
-6 15 -13 15 -8 0 -22 9 -32 20 -10 11 -24 20 -32 20 -7 0 -13 5 -13 10 0 6
-8 10 -19 10 -10 0 -24 7 -31 15 -7 8 -19 15 -26 15 -8 0 -14 6 -14 13 0 13
-39 38 -104 69 -21 10 -52 31 -67 46 -16 16 -48 38 -72 49 -45 22 -154 42
-127 24z"/>
<path d="M8940 1402 c0 -5 16 -12 36 -15 43 -7 102 -44 110 -69 3 -10 10 -18
16 -18 15 0 118 -69 118 -79 0 -5 8 -11 18 -15 29 -10 166 -88 177 -101 10
-12 24 -20 108 -61 20 -10 37 -23 38 -29 0 -5 37 -28 82 -50 45 -22 90 -48
100 -58 9 -9 43 -31 75 -48 31 -17 64 -37 73 -45 8 -8 21 -14 27 -14 7 0 12
-6 12 -14 0 -7 14 -19 30 -26 17 -7 30 -16 30 -21 0 -5 9 -9 19 -9 26 0 81
-32 81 -47 0 -7 4 -13 9 -13 6 0 30 -13 54 -30 25 -16 51 -30 59 -30 8 0 23
-8 34 -18 31 -29 128 -92 141 -92 7 0 21 -8 31 -18 21 -21 130 -94 155 -104 9
-4 17 -12 17 -18 0 -5 6 -10 13 -10 6 0 34 -16 61 -35 27 -19 55 -35 62 -35 7
0 17 -7 21 -15 5 -8 24 -23 43 -33 19 -10 54 -30 77 -45 24 -15 47 -27 53 -27
5 0 10 -4 10 -9 0 -8 149 -101 163 -101 3 0 17 -11 31 -25 17 -17 36 -25 58
-25 30 1 31 2 16 14 -10 7 -18 18 -18 25 0 6 -7 11 -15 11 -14 0 -62 26 -75
40 -3 3 -26 17 -52 30 -27 14 -48 28 -48 31 0 4 -8 10 -17 13 -34 12 -143 86
-143 96 0 4 -12 11 -27 15 -30 7 -133 73 -133 85 0 4 -24 18 -54 30 -30 12
-64 32 -77 46 -12 13 -28 24 -35 24 -6 0 -14 7 -17 14 -3 8 -31 26 -62 41 -31
14 -67 35 -79 48 -30 28 -62 47 -81 47 -8 0 -15 4 -15 9 0 5 -12 14 -27 21
-52 21 -73 35 -73 46 0 6 -21 22 -47 34 -89 42 -113 55 -113 65 -1 6 -28 23
-61 40 -32 16 -74 42 -91 58 -18 16 -62 45 -98 64 -86 44 -102 55 -118 76 -7
9 -18 17 -23 17 -22 0 -121 55 -130 72 -5 10 -16 18 -23 18 -8 0 -19 7 -26 15
-7 8 -21 15 -31 15 -11 0 -19 5 -19 10 0 6 -7 10 -15 10 -19 0 -66 29 -81 50
-7 8 -34 26 -60 39 -43 21 -134 99 -134 115 0 3 12 1 26 -4 14 -6 48 -10 75
-10 49 0 56 -3 102 -45 12 -11 52 -35 90 -53 37 -18 67 -38 67 -45 0 -7 24
-24 53 -38 120 -61 137 -72 137 -85 0 -8 6 -14 14 -14 7 0 19 -7 26 -15 7 -8
21 -15 31 -15 11 0 19 -4 19 -10 0 -5 6 -10 13 -10 7 0 22 -8 33 -17 22 -21
101 -73 109 -73 8 0 64 -41 88 -63 10 -11 42 -29 70 -42 29 -13 61 -31 72 -42
44 -40 95 -73 114 -73 11 0 32 -13 48 -28 15 -16 44 -37 63 -48 19 -10 39 -25
43 -31 4 -7 18 -13 31 -13 12 0 33 -10 45 -21 43 -40 106 -85 139 -98 17 -7
32 -17 32 -22 0 -5 5 -9 10 -9 6 0 20 -9 32 -19 11 -11 45 -32 74 -47 29 -15
55 -33 58 -40 3 -8 14 -14 25 -14 11 0 21 -3 23 -7 5 -13 66 -53 80 -53 8 0
21 -8 30 -17 26 -28 46 -43 58 -43 12 0 73 -41 78 -52 2 -5 12 -8 23 -8 10 0
19 -5 19 -10 0 -6 11 -15 25 -20 14 -5 25 -14 25 -20 0 -5 5 -10 10 -10 6 0
28 -11 50 -25 22 -14 46 -25 55 -25 8 0 15 -6 15 -13 0 -18 43 -37 83 -36 28
0 29 1 10 9 -12 5 -25 15 -30 22 -4 8 -27 22 -50 32 -24 11 -43 22 -43 26 0 4
-8 11 -17 14 -35 13 -73 37 -73 47 0 5 -7 9 -16 9 -9 0 -33 12 -53 28 -48 36
-72 51 -93 58 -10 4 -18 10 -18 14 0 5 -10 12 -22 16 -30 9 -107 61 -135 91
-12 13 -30 23 -40 23 -19 0 -125 67 -132 82 -1 5 -27 20 -57 33 -30 13 -71 40
-91 60 -21 20 -50 39 -65 42 -15 3 -29 11 -32 19 -3 8 -14 14 -24 14 -11 0
-25 7 -32 15 -7 8 -19 15 -26 15 -8 0 -14 7 -14 15 0 15 -49 45 -75 45 -8 0
-15 4 -15 9 0 5 -14 14 -30 20 -17 5 -33 17 -36 26 -3 8 -12 15 -19 15 -7 0
-15 6 -18 14 -3 8 -23 20 -43 26 -37 12 -45 17 -83 50 -34 30 -80 60 -91 60
-17 0 -52 23 -80 53 -14 15 -53 41 -85 58 -33 17 -69 41 -82 55 -12 13 -51 38
-87 55 -36 17 -72 42 -81 55 -8 13 -20 24 -25 24 -5 0 -26 11 -46 25 -20 14
-44 25 -54 25 -9 0 -26 10 -37 23 -11 12 -29 28 -39 34 -16 11 -12 12 26 7 25
-3 57 -6 73 -8 15 -1 30 -6 34 -9 3 -4 14 -7 24 -7 9 0 19 -6 22 -14 3 -8 34
-28 69 -45 35 -17 79 -45 98 -62 19 -16 53 -39 75 -50 63 -31 79 -42 113 -76
17 -18 36 -33 41 -33 16 0 71 -34 71 -45 1 -5 29 -23 63 -40 66 -32 109 -59
138 -87 10 -9 42 -29 71 -43 66 -32 82 -43 121 -78 17 -16 43 -31 59 -34 15
-3 28 -9 28 -14 0 -5 6 -9 14 -9 7 0 25 -11 39 -24 47 -44 91 -73 120 -80 15
-4 37 -18 49 -31 12 -14 28 -25 35 -25 7 0 13 -3 13 -8 0 -8 54 -37 87 -47 13
-3 35 -18 51 -33 34 -33 55 -47 110 -73 23 -11 42 -24 42 -29 0 -6 6 -10 14
-10 7 0 24 -9 38 -19 13 -11 43 -29 66 -41 23 -12 42 -25 42 -29 0 -3 17 -15
38 -26 20 -11 55 -32 76 -47 21 -16 45 -28 52 -28 7 0 14 -5 16 -11 3 -10 66
-49 137 -86 19 -10 45 -28 57 -41 17 -16 35 -22 66 -22 l43 1 -32 14 c-18 8
-33 18 -33 22 0 4 -14 14 -31 22 -29 13 -120 70 -146 91 -7 6 -15 10 -18 10
-7 0 -148 91 -155 100 -3 3 -25 16 -50 29 -25 12 -50 28 -55 35 -6 7 -20 16
-33 20 -12 4 -22 11 -22 16 0 5 -30 24 -67 42 -73 35 -85 43 -111 71 -9 10
-33 25 -52 33 -19 9 -42 20 -50 25 -8 5 -22 12 -30 16 -8 4 -22 14 -30 23 -8
9 -45 31 -82 49 -38 18 -68 37 -68 42 0 5 -7 9 -15 9 -8 0 -19 8 -24 18 -10
18 -106 72 -129 72 -6 0 -12 4 -12 10 0 15 -53 60 -71 60 -17 0 -86 42 -104
63 -5 7 -21 18 -35 25 -14 7 -47 26 -75 42 -27 17 -58 33 -67 36 -10 4 -18 12
-18 18 0 12 -65 46 -87 46 -6 0 -13 7 -17 15 -3 8 -12 15 -20 15 -7 0 -21 11
-30 25 -9 14 -40 36 -69 50 -29 13 -61 32 -72 42 -39 35 -109 83 -123 83 -18
0 -72 32 -72 42 0 4 25 8 55 8 41 0 61 -5 76 -18 11 -11 37 -24 58 -31 21 -6
44 -18 51 -26 7 -8 18 -15 25 -15 7 0 26 -14 42 -30 15 -17 46 -40 68 -51 60
-29 94 -51 129 -81 17 -16 38 -28 47 -28 9 0 32 -14 50 -31 19 -17 65 -47 103
-67 38 -19 76 -42 86 -51 30 -29 79 -61 93 -61 8 0 31 -11 51 -25 20 -14 41
-25 46 -25 6 0 10 -7 10 -15 0 -9 11 -21 25 -27 14 -6 25 -15 25 -20 0 -4 9
-8 19 -8 26 0 81 -32 81 -47 0 -7 5 -13 11 -13 6 0 29 -13 52 -28 23 -16 54
-32 69 -36 15 -3 38 -17 50 -29 30 -30 104 -77 121 -77 7 0 22 -8 33 -18 31
-28 105 -76 152 -96 23 -11 42 -25 42 -33 0 -7 4 -13 9 -13 6 0 30 -13 54 -30
25 -16 49 -30 55 -30 5 0 25 -13 43 -30 19 -16 42 -30 52 -30 9 0 17 -4 17 -9
0 -5 14 -14 30 -21 17 -7 30 -16 30 -21 0 -5 7 -9 16 -9 9 0 22 -6 28 -14 6
-8 38 -29 71 -46 33 -18 69 -38 80 -44 11 -6 22 -14 25 -17 20 -21 60 -39 90
-38 31 0 33 1 12 9 -12 5 -25 16 -28 25 -4 8 -13 15 -20 15 -8 0 -45 20 -83
45 -38 25 -73 45 -80 45 -6 0 -11 5 -11 10 0 6 -4 10 -9 10 -12 0 -141 83
-162 104 -9 9 -23 16 -33 16 -17 0 -78 38 -84 53 -2 4 -10 7 -18 7 -8 0 -14 6
-14 14 0 8 -22 22 -50 32 -27 10 -50 21 -50 25 0 4 -13 12 -30 19 -16 7 -30
16 -30 21 0 5 -6 9 -13 9 -7 0 -18 9 -25 20 -7 11 -21 20 -32 20 -11 0 -20 5
-20 10 0 6 -7 10 -15 10 -19 0 -95 47 -95 59 0 5 -18 16 -39 24 -22 9 -42 21
-46 27 -3 5 -14 10 -24 10 -10 0 -33 15 -52 33 -19 18 -50 39 -69 47 -19 8
-41 20 -48 27 -7 7 -20 13 -28 13 -7 0 -19 9 -26 20 -7 11 -18 20 -25 20 -7 0
-16 6 -20 14 -8 13 -53 40 -115 68 -16 7 -28 18 -28 25 0 7 -6 13 -14 13 -7 0
-19 7 -26 15 -7 8 -21 15 -31 15 -11 0 -19 3 -19 8 0 4 -18 16 -40 26 -22 11
-40 23 -40 28 0 5 -21 19 -47 31 -56 26 -98 53 -132 84 -26 25 -77 53 -95 53
-6 0 -36 23 -66 50 -31 28 -75 56 -100 65 l-45 15 71 -4 c39 -3 87 -12 105
-21 58 -27 96 -51 114 -69 10 -9 38 -27 64 -39 25 -12 54 -28 64 -37 10 -8 28
-23 39 -32 12 -10 27 -18 35 -18 7 0 13 -4 13 -8 0 -5 18 -16 41 -26 23 -10
57 -34 76 -52 19 -19 43 -34 54 -34 10 0 19 -4 19 -10 0 -5 9 -10 19 -10 11 0
26 -6 33 -13 7 -7 21 -16 31 -20 9 -3 17 -12 17 -19 0 -13 35 -35 100 -61 19
-8 46 -25 60 -38 38 -37 89 -69 109 -69 10 0 34 -15 54 -34 20 -19 50 -40 67
-47 16 -8 30 -17 30 -20 0 -3 21 -14 48 -24 26 -10 53 -27 60 -37 7 -10 18
-18 23 -18 6 0 25 -11 43 -25 18 -14 40 -25 49 -25 9 0 22 -9 29 -20 7 -11 18
-20 25 -20 7 0 13 -4 13 -8 0 -5 33 -25 74 -46 41 -20 76 -40 78 -44 4 -10
104 -71 134 -83 13 -4 24 -13 24 -19 0 -5 7 -10 15 -10 8 0 15 -3 15 -8 0 -4
21 -18 48 -32 26 -14 53 -30 60 -37 7 -7 22 -13 33 -13 10 0 19 -6 19 -13 0
-7 9 -17 20 -22 88 -45 112 -60 140 -87 25 -23 44 -32 79 -35 35 -3 41 -1 24
6 -12 5 -25 16 -30 23 -4 8 -24 22 -44 31 -20 9 -42 24 -49 32 -8 9 -27 23
-44 32 -17 9 -33 19 -36 22 -3 3 -23 15 -45 26 -22 11 -43 24 -46 28 -8 10
-47 34 -71 43 -10 3 -18 13 -18 20 0 8 -10 14 -24 14 -14 0 -31 6 -38 13 -18
16 -48 35 -74 46 -12 5 -24 16 -27 25 -3 8 -24 20 -45 26 -22 5 -45 17 -52 25
-7 8 -18 15 -25 15 -7 0 -27 16 -46 35 -19 19 -43 35 -53 35 -11 0 -34 11 -52
25 -18 14 -37 25 -43 25 -5 0 -16 8 -23 18 -7 9 -48 34 -91 56 -44 21 -92 52
-109 68 -16 16 -43 31 -59 35 -15 3 -34 12 -40 19 -6 8 -18 14 -25 14 -8 0
-19 9 -26 20 -7 11 -18 20 -25 20 -7 0 -13 4 -13 9 0 5 -21 18 -47 30 -72 33
-95 48 -105 65 -5 9 -15 16 -22 16 -8 0 -16 7 -20 15 -3 8 -15 15 -26 15 -11
0 -20 5 -20 10 0 6 -6 10 -13 10 -7 0 -24 11 -39 25 -15 14 -32 25 -38 25 -5
0 -10 4 -10 8 0 4 -20 16 -45 26 -25 11 -45 23 -45 28 0 4 -6 8 -13 8 -7 0
-20 8 -28 18 -28 30 -59 52 -74 52 -8 0 -15 5 -15 10 0 6 -9 10 -19 10 -11 0
-26 7 -35 15 -8 8 -19 15 -25 15 -6 0 -11 6 -11 14 0 8 -9 18 -20 21 -11 3
-26 12 -32 19 -7 6 -29 17 -48 24 -31 10 -25 11 45 6 67 -5 87 -10 122 -35 23
-16 46 -29 52 -29 6 0 11 -4 11 -9 0 -5 34 -30 75 -56 41 -25 75 -51 75 -56 0
-5 33 -25 73 -44 39 -19 82 -45 94 -58 11 -12 55 -38 97 -57 42 -19 76 -39 76
-45 0 -5 26 -23 58 -39 121 -60 137 -70 150 -88 7 -10 19 -18 26 -18 8 0 19
-7 26 -15 7 -8 22 -15 35 -15 12 0 33 -10 47 -22 36 -33 86 -68 96 -68 5 0 15
-7 22 -15 7 -8 21 -15 31 -15 11 0 28 -9 39 -20 30 -30 126 -90 145 -90 8 0
15 -4 15 -10 0 -5 7 -10 15 -10 8 0 15 -3 15 -7 0 -5 32 -26 71 -48 39 -22 80
-48 90 -58 11 -9 22 -17 25 -17 4 0 31 -16 60 -35 29 -19 57 -35 62 -35 5 0
25 -13 43 -30 19 -16 40 -30 48 -30 7 0 30 -13 51 -30 21 -16 43 -30 49 -30 6
0 11 -4 11 -8 0 -5 10 -14 23 -20 12 -7 45 -26 72 -42 28 -17 58 -33 68 -36 9
-4 17 -10 17 -15 0 -16 59 -39 97 -38 29 1 33 3 16 7 -13 4 -32 15 -43 24 -11
10 -23 18 -25 18 -9 0 -150 94 -153 102 -2 5 -15 8 -28 8 -13 0 -24 4 -24 9 0
5 -17 19 -37 31 -21 12 -42 28 -46 36 -4 8 -14 14 -21 14 -8 0 -16 7 -20 15
-3 8 -15 15 -26 15 -20 0 -81 37 -88 53 -2 4 -10 7 -17 7 -8 0 -19 9 -25 19
-5 11 -23 22 -38 26 -16 3 -52 21 -81 40 -29 19 -55 35 -58 35 -3 0 -12 9 -21
19 -10 10 -38 27 -64 36 -27 10 -48 22 -48 26 0 5 -6 9 -12 9 -7 0 -29 14 -48
30 -19 16 -39 30 -45 30 -13 0 -128 71 -140 87 -5 7 -27 19 -47 28 -21 8 -38
20 -38 25 0 6 -10 10 -23 10 -12 0 -29 9 -37 20 -8 11 -20 20 -26 20 -6 0 -17
6 -23 13 -6 8 -29 20 -51 27 -22 7 -40 17 -40 21 0 4 -16 13 -35 19 -19 6 -35
17 -35 23 0 7 -34 28 -75 47 -41 19 -75 38 -75 42 0 5 -6 8 -14 8 -8 0 -30 14
-48 30 -18 17 -40 30 -49 30 -9 0 -22 7 -29 15 -7 8 -19 15 -27 15 -7 0 -16 7
-19 15 -4 8 -11 15 -18 15 -6 1 -27 14 -46 30 -19 17 -39 30 -46 30 -6 0 -26
16 -45 35 -19 19 -38 35 -42 35 -5 0 -15 7 -23 15 -14 13 -9 15 44 15 48 0 68
-5 101 -27 23 -15 41 -30 41 -35 0 -4 7 -8 16 -8 8 0 22 -7 30 -15 9 -8 24
-15 35 -15 10 0 19 -4 19 -10 0 -5 7 -10 15 -10 8 0 15 -5 15 -10 0 -6 11 -16
25 -22 14 -6 25 -17 25 -25 0 -7 8 -13 19 -13 10 0 24 -7 31 -15 7 -8 19 -15
27 -15 14 0 72 -35 83 -51 11 -15 84 -59 97 -59 16 0 74 -39 86 -57 4 -7 15
-13 22 -13 8 0 15 -4 15 -10 0 -5 22 -17 49 -27 27 -9 66 -32 87 -49 20 -18
62 -44 93 -59 31 -15 61 -32 66 -39 16 -18 117 -81 155 -96 19 -8 41 -22 48
-32 7 -10 20 -18 28 -18 8 0 14 -4 14 -9 0 -5 23 -18 51 -30 27 -12 53 -29 56
-36 3 -8 11 -15 19 -15 7 0 33 -14 58 -30 25 -17 59 -35 76 -41 17 -6 35 -20
41 -30 5 -10 18 -19 28 -19 11 0 33 -13 51 -30 18 -16 38 -30 45 -30 6 0 25
-11 41 -25 16 -14 45 -34 64 -44 19 -10 51 -27 70 -37 19 -11 38 -23 41 -27 8
-11 46 -33 82 -48 15 -6 27 -14 27 -18 0 -3 15 -13 33 -20 17 -8 40 -23 49
-34 12 -13 34 -21 65 -23 26 -2 39 -1 28 3 -11 3 -27 14 -36 24 -9 11 -24 19
-33 19 -9 0 -16 5 -16 10 0 6 -7 10 -15 10 -8 0 -15 4 -15 9 0 5 -13 14 -30
21 -16 7 -30 16 -30 21 0 5 -9 9 -20 9 -11 0 -23 7 -26 15 -4 8 -11 15 -18 15
-12 0 -148 87 -156 100 -3 5 -17 11 -32 15 -15 4 -32 13 -39 21 -6 8 -17 14
-24 14 -6 0 -28 16 -49 36 -20 19 -51 40 -69 46 -38 13 -91 46 -131 81 -15 13
-45 30 -66 36 -21 6 -43 18 -50 26 -7 8 -18 15 -24 15 -6 0 -24 12 -41 26 -16
14 -50 35 -74 46 -47 21 -88 48 -128 84 -13 12 -36 24 -51 27 -16 3 -42 18
-59 34 -39 35 -57 48 -110 73 -23 11 -45 24 -48 30 -3 5 -15 10 -26 10 -11 0
-22 7 -25 15 -6 15 -68 55 -86 55 -6 0 -26 11 -44 25 -18 14 -35 25 -39 25 -3
0 -15 9 -27 20 -12 11 -28 20 -35 20 -7 0 -13 5 -13 10 0 6 -8 10 -19 10 -10
0 -24 7 -31 15 -7 8 -19 15 -26 15 -8 0 -14 6 -14 14 0 8 -16 20 -35 26 -19 6
-35 15 -35 18 0 4 -18 15 -39 26 -22 10 -53 31 -71 47 -17 16 -36 29 -41 29
-6 0 -7 4 -4 10 13 22 155 -15 155 -40 0 -6 7 -10 16 -10 8 0 22 -7 30 -15 9
-8 24 -15 35 -15 10 0 19 -4 19 -10 0 -5 4 -10 9 -10 18 0 80 -45 81 -57 0 -7
5 -13 11 -13 17 0 133 -60 144 -74 20 -26 88 -66 111 -66 13 0 24 -4 24 -9 0
-5 14 -14 30 -21 17 -7 30 -18 30 -24 0 -6 28 -24 63 -41 66 -32 66 -32 112
-70 17 -14 55 -37 85 -51 30 -14 60 -31 65 -38 16 -19 117 -81 155 -96 19 -8
38 -19 42 -26 4 -6 25 -21 45 -32 66 -34 118 -64 123 -71 3 -3 22 -15 43 -26
20 -11 37 -23 37 -27 0 -4 23 -17 50 -29 28 -12 50 -28 50 -35 0 -8 7 -14 16
-14 9 0 36 -13 61 -30 24 -16 49 -30 56 -30 7 0 22 -11 34 -24 13 -13 46 -35
75 -50 65 -33 91 -49 99 -59 3 -5 17 -14 30 -21 38 -20 74 -41 79 -46 10 -10
50 -30 59 -30 6 0 21 -11 35 -25 14 -14 36 -25 50 -25 l25 0 -24 24 c-13 13
-37 30 -54 37 -17 8 -31 17 -31 20 0 4 -13 12 -30 19 -16 7 -30 16 -30 21 0 5
-9 9 -20 9 -11 0 -23 7 -26 15 -4 8 -13 15 -21 15 -8 0 -32 13 -52 28 -20 16
-52 37 -71 48 -19 10 -39 25 -43 32 -4 6 -14 12 -22 12 -16 0 -103 55 -125 80
-8 9 -34 23 -57 30 -24 7 -43 17 -43 21 0 4 -9 10 -20 14 -11 3 -35 22 -55 41
-19 19 -42 34 -51 34 -17 0 -114 60 -147 90 -11 11 -28 20 -36 20 -9 1 -34 12
-56 25 -22 14 -50 29 -61 34 -12 5 -24 17 -27 25 -4 9 -13 16 -22 16 -8 0 -15
5 -15 10 0 6 -6 10 -14 10 -19 0 -74 30 -102 55 -38 33 -47 39 -111 70 -35 17
-63 35 -63 40 0 11 -45 40 -107 68 -24 11 -43 23 -43 28 0 5 -9 9 -20 9 -11 0
-20 6 -20 13 0 8 -28 26 -62 42 -34 16 -71 38 -82 49 -21 21 -71 50 -148 88
-27 13 -48 28 -48 35 0 6 -10 15 -22 19 -13 3 -30 12 -38 19 -10 9 -63 15
-155 19 -77 3 -167 9 -199 12 -46 5 -57 4 -51 -6 6 -9 3 -10 -11 -2 -11 6 -70
13 -132 17 -72 5 -115 12 -120 20 -5 8 -53 15 -147 20 -229 12 -239 13 -275
19 -19 3 -75 7 -125 10 -49 2 -101 8 -115 14 -14 5 -80 10 -147 11 -67 0 -134
3 -148 7 -14 3 -25 2 -25 -4z"/>
<path d="M10650 1260 c0 -5 20 -10 45 -10 30 0 51 -6 63 -18 10 -10 40 -27 65
-38 26 -10 47 -22 47 -26 0 -5 4 -8 9 -8 16 0 80 -44 81 -56 0 -10 15 -19 92
-54 14 -7 40 -25 57 -41 28 -25 46 -35 111 -63 26 -12 62 -34 69 -43 14 -19
89 -63 119 -69 17 -4 37 -13 43 -20 6 -8 18 -14 25 -14 8 0 14 -4 14 -10 0
-13 65 -53 123 -75 26 -10 47 -21 47 -25 0 -10 110 -80 126 -80 7 0 16 -4 19
-10 3 -5 15 -10 26 -10 10 0 19 -7 19 -15 0 -8 5 -15 10 -15 6 0 18 -8 28 -18
25 -23 59 -42 76 -42 8 0 21 -8 28 -17 7 -10 31 -27 53 -38 22 -11 46 -25 53
-32 7 -6 28 -17 47 -24 19 -7 35 -18 35 -24 0 -7 17 -19 38 -28 48 -21 125
-65 132 -76 3 -4 27 -21 55 -37 27 -16 59 -34 70 -41 11 -7 27 -16 35 -20 15
-7 29 -17 58 -43 9 -8 44 -29 77 -45 33 -16 62 -32 65 -36 17 -18 58 -39 79
-39 l24 0 -25 23 c-14 13 -40 31 -59 40 -43 22 -69 39 -87 54 -7 7 -20 13 -27
13 -8 0 -18 6 -22 13 -9 14 -37 32 -70 47 -13 5 -23 13 -23 17 0 5 -20 17 -45
28 -24 10 -47 25 -49 32 -3 7 -14 13 -24 13 -11 0 -25 7 -32 15 -7 8 -17 15
-22 15 -10 0 -29 15 -63 48 -12 12 -29 22 -36 22 -8 0 -45 18 -83 40 -37 22
-72 40 -77 40 -5 0 -9 6 -9 14 0 15 -21 26 -51 26 -10 0 -19 4 -19 9 0 5 -8
12 -17 15 -39 14 -71 37 -87 61 -9 14 -24 25 -34 25 -10 0 -38 13 -63 28 -24
16 -52 31 -61 35 -10 3 -18 11 -18 16 0 10 -79 51 -98 51 -6 0 -23 12 -40 28
-37 34 -60 49 -92 62 -68 27 -140 66 -140 75 0 6 -42 30 -93 54 -50 25 -99 52
-107 62 -15 17 -61 46 -110 71 -13 7 -38 26 -55 41 -16 15 -47 35 -67 44 -21
9 -38 20 -38 25 0 4 -7 8 -15 8 -8 0 -15 5 -15 10 0 6 16 10 35 10 19 0 35 -4
35 -10 0 -5 18 -10 40 -10 22 0 40 -4 40 -9 0 -5 14 -11 30 -15 32 -6 101 -49
147 -92 15 -14 40 -28 56 -31 15 -3 42 -19 58 -34 17 -16 33 -29 36 -29 2 0
19 -11 37 -25 18 -14 42 -25 53 -25 11 0 26 -7 33 -15 7 -8 19 -15 27 -15 7 0
16 -7 20 -16 3 -8 15 -20 27 -25 11 -5 28 -13 36 -18 8 -6 40 -22 69 -36 30
-14 61 -35 69 -46 7 -10 18 -19 24 -19 6 0 19 -6 27 -14 9 -7 37 -21 64 -31
26 -10 47 -24 47 -31 0 -8 5 -14 11 -14 6 0 28 -13 49 -30 21 -16 45 -30 53
-30 9 0 19 -4 22 -10 3 -5 15 -10 26 -10 10 0 19 -7 19 -14 0 -14 33 -37 73
-52 9 -3 17 -10 17 -15 0 -5 9 -9 20 -9 11 0 28 -8 38 -18 22 -22 89 -63 150
-91 23 -11 42 -25 42 -30 0 -5 35 -27 78 -48 42 -20 88 -48 102 -61 26 -25
135 -92 150 -92 4 0 10 -3 12 -7 5 -12 66 -53 78 -53 5 0 10 -4 10 -9 0 -5 23
-17 50 -27 28 -10 50 -23 50 -29 0 -16 45 -35 78 -34 27 0 27 1 5 11 -13 6
-23 17 -23 25 0 7 -7 13 -15 13 -14 0 -61 25 -75 40 -3 3 -26 15 -52 27 -27
13 -48 27 -48 33 0 5 -6 10 -13 10 -8 0 -32 13 -53 28 -21 16 -58 37 -81 48
-23 10 -43 25 -43 32 0 6 -6 12 -12 12 -11 0 -115 66 -128 81 -3 3 -40 23 -82
44 -43 21 -78 42 -78 47 0 4 -7 8 -15 8 -8 0 -15 6 -15 14 0 15 -21 26 -51 26
-10 0 -19 3 -19 8 0 4 -19 16 -41 27 -22 10 -46 26 -52 35 -16 22 -50 40 -76
40 -12 0 -21 5 -21 10 0 6 -10 15 -22 21 -37 16 -61 33 -92 62 -16 15 -35 27
-43 27 -16 0 -93 47 -93 58 0 8 -22 20 -80 47 -19 8 -42 20 -50 25 -8 6 -25
14 -37 20 -13 5 -23 14 -23 19 0 12 -56 45 -106 62 -43 15 -56 23 -86 57 -12
12 -28 22 -35 22 -7 0 -13 5 -13 10 0 6 -9 10 -19 10 -11 0 -26 7 -35 15 -8 8
-22 15 -30 15 -9 0 -16 6 -16 13 0 13 -38 38 -105 70 -51 25 -52 26 -35 37 8
5 11 13 6 17 -5 4 -11 2 -13 -4 -6 -18 -21 -16 -40 3 -12 12 -27 14 -54 10
-21 -3 -41 -2 -44 4 -3 5 -36 9 -73 9 -37 0 -94 5 -127 11 -74 12 -75 12 -75
0z"/>
<path d="M11194 1195 c11 -8 26 -15 33 -15 17 0 113 -59 113 -70 0 -11 59 -45
91 -53 14 -4 38 -18 53 -32 15 -14 31 -25 37 -25 5 0 9 -3 9 -7 0 -11 58 -43
76 -43 15 0 64 -32 96 -62 9 -10 48 -33 85 -52 38 -18 85 -50 106 -70 21 -20
46 -36 56 -36 10 0 33 -13 51 -30 18 -16 37 -30 42 -30 9 0 68 -39 78 -51 3
-3 17 -9 32 -13 15 -3 35 -14 45 -25 10 -10 38 -29 63 -42 25 -13 47 -27 48
-31 2 -5 12 -8 23 -8 10 0 24 -9 31 -20 7 -11 18 -20 25 -20 7 0 13 -4 13 -9
0 -5 16 -15 35 -21 19 -6 35 -15 35 -19 0 -4 16 -13 37 -20 20 -7 51 -29 70
-47 18 -19 43 -34 53 -34 11 0 20 -4 20 -9 0 -5 14 -14 30 -20 17 -5 30 -15
30 -20 0 -6 7 -11 15 -11 8 0 15 -3 15 -8 0 -4 35 -25 78 -47 42 -22 79 -43
82 -47 11 -14 113 -78 125 -78 8 0 17 -4 20 -10 3 -5 12 -10 20 -10 8 0 25
-11 39 -25 17 -17 36 -25 58 -24 18 0 26 3 18 6 -8 4 -22 14 -31 25 -9 10 -24
18 -33 18 -9 0 -16 4 -16 9 0 5 -8 11 -17 15 -10 3 -26 10 -35 16 -10 5 -26
15 -35 20 -10 6 -26 13 -35 16 -10 4 -18 13 -18 20 0 8 -9 14 -19 14 -11 0
-26 6 -33 13 -21 19 -50 36 -80 48 -16 6 -28 15 -28 20 0 5 -7 9 -15 9 -8 0
-15 4 -15 9 0 5 -9 13 -20 16 -23 7 -113 65 -148 95 -13 11 -35 23 -48 26 -13
3 -24 10 -24 14 0 4 -13 13 -30 20 -16 7 -30 16 -30 21 0 5 -5 9 -10 9 -6 0
-20 9 -32 20 -12 11 -28 20 -35 20 -7 0 -31 11 -53 25 -22 14 -42 25 -45 25
-3 0 -17 11 -30 24 -13 13 -38 27 -55 31 -16 4 -30 10 -30 15 0 4 -13 13 -30
20 -16 7 -30 16 -30 21 0 5 -7 9 -15 9 -7 0 -18 6 -22 13 -8 14 -40 33 -110
63 -24 11 -43 22 -43 26 0 17 -55 56 -100 72 -28 10 -50 22 -50 27 0 5 -7 9
-15 9 -8 0 -19 9 -25 20 -6 11 -17 20 -26 20 -8 0 -17 7 -20 15 -4 8 -14 15
-24 15 -24 0 -69 24 -110 60 -19 16 -41 30 -47 30 -7 0 -13 5 -13 10 0 6 -8
10 -19 10 -10 0 -24 7 -31 15 -7 8 -19 15 -28 15 -8 0 -25 10 -37 23 -42 41
-86 67 -114 67 -10 0 -21 7 -25 15 -3 9 -18 15 -38 15 -31 -1 -32 -1 -14 -15z"/>
<path d="M11400 1182 c19 -2 37 -7 40 -10 3 -4 21 -16 40 -26 19 -11 48 -32
63 -48 16 -15 40 -31 55 -35 34 -8 92 -42 92 -54 0 -5 7 -9 15 -9 8 0 15 -4
15 -10 0 -5 17 -16 38 -25 69 -30 117 -58 130 -77 8 -10 46 -35 85 -55 40 -19
74 -39 77 -44 8 -12 80 -59 91 -59 9 0 58 -28 69 -40 13 -13 70 -50 78 -50 5
0 15 -7 22 -15 7 -8 20 -15 29 -15 10 0 28 -10 41 -22 25 -25 57 -44 133 -79
26 -13 47 -27 47 -32 0 -12 42 -46 58 -47 8 0 25 -9 39 -20 14 -11 32 -20 39
-20 8 0 22 -8 32 -18 27 -27 79 -62 92 -62 6 0 18 -7 26 -15 9 -8 24 -15 35
-15 10 0 19 -6 19 -14 0 -7 8 -16 18 -20 9 -3 31 -15 47 -26 52 -34 104 -60
120 -60 8 0 15 -4 15 -9 0 -10 117 -86 148 -95 12 -4 22 -11 22 -16 0 -15 56
-40 87 -39 26 0 26 1 6 9 -12 5 -25 15 -30 22 -4 7 -25 21 -45 30 -21 10 -38
22 -38 27 0 5 -10 11 -23 15 -13 3 -36 17 -51 31 -15 14 -33 25 -41 25 -8 0
-17 5 -20 11 -4 5 -17 14 -28 20 -21 8 -34 16 -74 39 -10 6 -26 13 -35 16 -10
4 -18 10 -18 15 0 5 -15 16 -32 24 -58 26 -114 61 -135 82 -12 12 -35 24 -52
28 -17 4 -31 11 -31 16 0 6 -13 15 -30 20 -16 6 -30 15 -30 20 0 5 -8 9 -18 9
-9 0 -23 9 -30 20 -7 11 -19 20 -27 20 -8 0 -15 3 -15 8 0 4 -14 13 -32 21
-17 8 -45 27 -62 43 -17 16 -43 32 -58 35 -15 3 -33 12 -39 19 -6 8 -18 14
-25 14 -8 0 -14 4 -14 10 0 5 -11 12 -25 16 -14 3 -30 14 -35 24 -5 10 -27 24
-47 31 -43 14 -113 55 -113 67 0 7 -44 32 -110 61 -40 19 -63 34 -100 69 -19
17 -42 32 -51 32 -17 0 -75 36 -111 70 -12 11 -27 20 -34 20 -7 0 -14 3 -16 8
-4 10 -67 42 -84 42 -8 0 -14 6 -14 14 0 7 -13 19 -30 26 -16 7 -30 16 -30 20
0 4 -10 10 -22 14 -18 5 -20 8 -9 15 9 6 -12 9 -60 8 -41 0 -58 -2 -39 -5z"/>
<path d="M11610 1173 c59 -24 110 -55 110 -68 0 -6 30 -24 67 -40 36 -17 86
-49 110 -72 24 -24 52 -43 62 -43 10 0 24 -7 31 -15 7 -8 18 -15 26 -15 7 0
20 -8 30 -17 20 -20 37 -31 110 -67 28 -14 64 -37 80 -51 16 -14 57 -39 91
-56 34 -17 64 -37 67 -45 3 -8 14 -14 25 -14 11 0 21 -3 23 -7 6 -14 67 -53
82 -53 7 0 24 -11 37 -25 22 -24 37 -33 129 -80 19 -10 46 -29 60 -43 14 -13
60 -40 102 -60 43 -20 78 -41 78 -48 0 -6 8 -14 18 -18 17 -5 115 -58 142 -76
86 -58 154 -100 161 -100 5 0 9 -4 9 -10 0 -5 11 -12 25 -16 14 -3 25 -10 25
-14 0 -5 9 -12 20 -15 11 -3 26 -12 33 -18 20 -19 55 -37 71 -37 8 0 26 -11
40 -25 17 -16 36 -25 58 -25 l32 0 -24 17 c-14 9 -27 19 -30 23 -3 3 -35 20
-72 38 -38 18 -68 37 -68 43 0 5 -7 9 -15 9 -9 0 -18 7 -21 15 -4 8 -12 15
-20 15 -8 0 -43 20 -80 45 -36 25 -69 45 -74 45 -4 0 -10 4 -12 8 -3 9 -21 20
-115 67 -29 15 -53 30 -53 35 0 4 -26 21 -57 37 -108 56 -128 68 -136 80 -4 7
-27 22 -50 34 -66 32 -91 47 -102 61 -5 7 -23 19 -39 26 -35 16 -140 84 -144
94 -2 4 -33 22 -70 39 -37 18 -74 41 -83 51 -9 10 -21 18 -27 18 -6 0 -15 6
-19 13 -4 7 -28 19 -52 27 -24 8 -45 20 -48 27 -3 7 -12 13 -19 13 -8 0 -17 7
-20 15 -3 8 -15 17 -27 21 -12 4 -27 13 -35 20 -7 8 -24 14 -38 14 -13 0 -24
5 -24 10 0 6 -6 10 -12 10 -7 0 -35 20 -63 45 -27 25 -57 45 -66 45 -10 0 -24
7 -33 15 -8 8 -19 15 -25 15 -5 0 -14 6 -18 13 -4 7 -25 23 -45 37 -20 13 -35
27 -33 30 2 3 -4 6 -13 7 -9 1 -39 4 -67 8 l-50 6 45 -18z"/>
<path d="M11779 1169 c35 -4 67 -12 70 -17 3 -5 16 -14 29 -21 12 -6 22 -18
22 -25 0 -8 8 -16 18 -20 9 -3 24 -10 32 -15 8 -5 31 -16 50 -25 20 -8 49 -27
65 -41 17 -15 49 -36 72 -46 23 -11 45 -24 48 -29 3 -6 15 -10 25 -10 11 0 24
-9 30 -20 6 -11 17 -20 25 -20 8 0 15 -4 15 -8 0 -5 19 -17 43 -28 23 -10 47
-23 54 -29 7 -5 19 -16 27 -22 8 -7 20 -13 26 -13 5 0 10 -4 10 -10 0 -5 6
-10 14 -10 7 0 19 -7 26 -15 7 -8 20 -15 30 -15 9 0 35 -17 57 -37 23 -21 67
-51 100 -67 32 -16 69 -40 82 -53 13 -13 30 -23 37 -23 8 0 14 -4 14 -9 0 -5
23 -17 51 -27 28 -10 65 -32 82 -49 30 -29 133 -85 156 -85 5 0 14 -6 18 -13
11 -17 95 -75 127 -87 14 -5 26 -13 26 -18 0 -5 18 -17 40 -28 22 -10 40 -22
40 -25 0 -4 14 -12 30 -19 17 -7 30 -16 30 -21 0 -5 11 -9 24 -9 13 0 26 -4
28 -8 6 -14 145 -102 162 -102 9 0 16 -4 16 -9 0 -14 65 -41 97 -40 27 0 27 1
5 9 -12 5 -25 16 -28 25 -4 8 -12 15 -20 15 -19 0 -148 74 -174 100 -9 9 -45
30 -90 52 -25 12 -49 26 -55 30 -5 5 -21 17 -34 28 -13 11 -28 20 -33 20 -11
0 -120 70 -128 82 -8 10 -118 68 -130 68 -12 0 -32 15 -62 47 -12 13 -29 23
-37 24 -9 0 -29 9 -46 20 -16 10 -45 26 -62 36 -18 9 -33 20 -33 25 0 4 -7 8
-15 8 -8 0 -15 5 -15 10 0 6 -8 10 -19 10 -10 0 -24 7 -31 15 -7 8 -18 15 -24
15 -6 0 -29 16 -50 35 -22 19 -46 35 -53 35 -7 0 -13 4 -13 9 0 5 -11 12 -25
15 -14 4 -25 11 -25 16 0 6 -4 10 -10 10 -5 0 -27 16 -47 35 -20 19 -43 35
-50 35 -18 0 -83 32 -83 42 0 4 -7 8 -15 8 -9 0 -18 7 -22 16 -3 8 -15 20 -27
25 -11 5 -28 13 -36 18 -8 5 -31 16 -50 25 -49 22 -73 38 -88 59 -7 9 -20 17
-28 17 -8 0 -14 5 -14 10 0 6 -11 10 -24 10 -13 0 -29 7 -36 15 -7 8 -19 15
-27 15 -7 0 -16 6 -19 14 -3 7 -27 27 -53 45 -43 28 -56 31 -117 30 l-69 -2
64 -8z"/>
<path d="M12092 1114 c2 -9 35 -34 75 -54 39 -21 82 -48 95 -60 13 -12 41 -31
64 -41 22 -10 53 -30 68 -44 15 -13 38 -28 51 -31 14 -3 25 -9 25 -14 0 -4 19
-15 43 -25 23 -11 56 -34 73 -52 18 -18 37 -33 44 -33 6 0 18 -7 26 -15 9 -8
23 -15 33 -15 10 0 31 -12 47 -27 32 -31 42 -37 134 -84 36 -18 71 -41 78 -51
7 -10 20 -18 28 -18 8 0 14 -4 14 -9 0 -5 22 -17 50 -27 27 -10 67 -33 87 -51
21 -18 44 -33 51 -33 6 0 12 -4 12 -9 0 -5 20 -17 45 -27 25 -9 49 -22 53 -28
11 -18 118 -86 135 -86 8 0 30 -13 48 -30 19 -16 37 -30 41 -30 4 0 27 -13 51
-30 25 -16 52 -30 60 -30 9 0 28 -11 43 -25 28 -26 52 -41 117 -72 20 -10 37
-21 37 -25 0 -5 6 -8 14 -8 8 0 16 -5 18 -10 2 -6 20 -13 42 -17 l38 -6 -24
24 c-13 13 -37 30 -54 38 -16 7 -36 17 -44 22 -8 5 -25 13 -37 19 -13 5 -23
14 -23 20 0 5 -7 10 -15 10 -9 0 -18 7 -21 15 -4 8 -12 15 -18 15 -14 0 -98
39 -106 49 -8 10 -43 31 -62 37 -10 4 -18 10 -18 14 0 5 -21 18 -47 31 -52 24
-106 59 -111 71 -2 4 -22 17 -45 28 -70 33 -131 72 -145 92 -7 10 -20 18 -28
18 -8 0 -32 11 -54 25 -22 14 -44 25 -49 25 -5 0 -25 14 -43 30 -18 16 -39 30
-46 30 -8 0 -31 14 -52 30 -21 17 -45 30 -54 30 -9 0 -19 7 -22 15 -3 8 -34
28 -68 44 -34 17 -71 39 -81 49 -11 10 -38 28 -60 41 -64 38 -117 74 -143 98
-14 13 -40 25 -58 29 -19 3 -34 10 -34 14 0 4 -8 10 -17 14 -23 7 -48 24 -85
59 -17 15 -40 27 -53 27 -12 0 -28 7 -35 15 -7 8 -19 15 -26 15 -8 0 -22 9
-31 20 -21 24 -36 26 -31 4z"/>
<path d="M12303 1080 c14 -11 30 -20 35 -20 5 0 23 -13 40 -28 37 -34 100 -77
128 -86 12 -3 41 -24 64 -46 24 -22 47 -40 52 -40 18 0 133 -62 141 -76 7 -13
77 -50 140 -73 15 -6 27 -14 27 -19 0 -14 115 -82 138 -82 11 0 30 -12 43 -26
13 -14 33 -29 44 -35 11 -5 34 -18 50 -28 17 -11 38 -20 47 -20 9 -1 23 -9 30
-19 7 -10 29 -27 48 -38 19 -10 41 -25 48 -31 7 -7 31 -18 52 -24 22 -7 40
-17 40 -24 0 -6 15 -19 33 -28 63 -33 121 -68 127 -75 3 -4 23 -16 45 -27 22
-11 42 -22 45 -26 3 -3 25 -16 50 -30 25 -13 47 -27 48 -31 2 -5 9 -8 16 -8 7
0 39 -20 72 -45 32 -24 65 -45 73 -45 7 0 21 -9 31 -20 11 -13 35 -22 66 -25
38 -4 44 -3 26 5 -12 5 -25 16 -28 25 -4 8 -15 15 -25 15 -22 0 -119 58 -119
71 0 5 -7 9 -15 9 -9 0 -18 6 -21 14 -3 8 -17 16 -32 19 -31 7 -153 83 -165
104 -4 7 -15 13 -23 13 -17 0 -71 28 -92 47 -7 7 -20 13 -28 13 -8 0 -17 7
-20 15 -4 9 -40 32 -81 53 -41 20 -83 41 -94 47 -10 5 -19 16 -19 23 0 7 -13
15 -29 18 -16 4 -38 14 -49 24 -10 10 -29 21 -41 25 -13 4 -37 20 -54 36 -16
16 -38 29 -48 29 -10 0 -21 4 -24 10 -3 5 -31 22 -61 36 -30 14 -54 29 -54 34
0 5 -17 16 -37 25 -21 9 -45 21 -53 26 -8 5 -23 12 -32 15 -10 4 -18 10 -18
15 0 5 -5 9 -11 9 -6 0 -17 6 -24 13 -32 27 -45 37 -51 37 -19 0 -143 66 -144
76 0 7 -8 14 -17 18 -31 10 -92 50 -128 84 -20 17 -41 32 -48 33 -7 0 -25 9
-42 20 -62 39 -117 54 -72 19z"/>
<path d="M12480 1093 c8 -4 21 -12 28 -20 7 -7 19 -13 27 -13 7 0 24 -13 37
-28 13 -16 59 -48 103 -71 44 -24 87 -51 95 -61 8 -10 47 -34 86 -54 40 -19
79 -43 89 -52 28 -28 80 -61 108 -68 15 -3 35 -14 45 -24 23 -22 119 -85 157
-101 16 -7 35 -21 43 -32 7 -10 20 -19 28 -19 8 0 14 -4 14 -8 0 -10 65 -42
85 -42 8 0 20 -9 27 -20 7 -11 16 -20 20 -20 4 0 26 -13 50 -29 24 -16 62 -37
86 -46 23 -10 42 -21 42 -26 0 -5 8 -13 18 -16 9 -4 35 -19 57 -34 22 -14 50
-30 63 -33 12 -4 22 -11 22 -14 0 -4 17 -16 38 -27 20 -11 53 -32 73 -47 20
-15 44 -28 52 -28 8 0 17 -6 20 -13 3 -8 25 -24 49 -36 23 -12 57 -30 73 -41
17 -10 38 -19 48 -19 9 -1 17 -7 17 -14 0 -18 43 -37 83 -36 30 0 31 1 10 11
-13 6 -23 17 -23 25 0 7 -7 13 -15 13 -16 0 -76 28 -85 39 -3 3 -22 15 -44 26
-21 11 -40 26 -43 32 -3 7 -15 13 -28 13 -12 0 -28 7 -35 15 -7 8 -18 15 -24
15 -6 0 -26 13 -44 30 -18 17 -37 30 -43 30 -5 0 -9 4 -9 10 0 5 -12 13 -27
16 -16 4 -47 20 -71 35 -24 16 -47 29 -52 29 -5 0 -14 8 -19 18 -5 9 -26 23
-48 31 -43 15 -131 68 -153 92 -8 9 -36 25 -62 34 -27 10 -48 22 -48 26 0 5
-6 9 -12 9 -7 0 -29 14 -48 30 -19 16 -42 30 -51 30 -9 0 -22 7 -29 15 -7 8
-16 15 -21 15 -5 0 -18 8 -28 18 -48 44 -75 63 -129 87 -31 15 -61 33 -67 39
-5 7 -47 34 -92 60 -46 26 -83 51 -83 54 0 4 -34 25 -76 47 -42 22 -88 52
-103 68 -14 15 -31 27 -37 27 -6 0 -37 14 -69 30 -32 17 -66 30 -74 29 -14 0
-14 -1 -1 -6z"/>
<path d="M12810 1091 c50 -12 140 -59 146 -76 4 -8 12 -15 19 -15 7 0 18 -6
24 -13 6 -8 28 -19 50 -27 21 -7 56 -28 77 -46 21 -19 43 -34 50 -34 6 0 14
-6 17 -13 2 -6 22 -18 43 -26 41 -15 54 -24 86 -58 12 -13 28 -23 35 -23 7 0
13 -4 13 -9 0 -4 21 -16 48 -26 26 -10 57 -28 69 -39 33 -32 43 -39 108 -71
33 -16 62 -33 65 -36 12 -15 120 -79 134 -79 8 0 21 -8 28 -19 7 -10 23 -21
36 -25 12 -4 22 -12 22 -17 0 -5 6 -9 14 -9 7 0 19 -7 27 -16 7 -9 30 -22 50
-31 21 -8 40 -21 43 -29 3 -8 15 -14 26 -14 11 0 20 -4 20 -9 0 -5 14 -14 30
-21 17 -7 30 -16 30 -21 0 -5 6 -9 14 -9 8 0 21 -6 28 -12 18 -17 44 -32 98
-59 25 -13 51 -29 58 -36 7 -7 22 -13 33 -13 10 0 19 -7 19 -15 0 -8 6 -15 14
-15 7 0 19 -7 26 -15 7 -8 21 -15 31 -15 10 0 22 -6 26 -12 9 -15 48 -38 62
-38 6 0 21 -11 35 -25 17 -17 36 -25 58 -24 30 0 31 1 11 9 -13 5 -23 16 -23
25 0 8 -7 15 -15 15 -15 0 -55 19 -65 31 -5 6 -51 32 -87 48 -13 6 -23 15 -23
21 0 5 -7 10 -15 10 -9 0 -46 20 -83 45 -37 25 -72 45 -79 45 -7 0 -13 4 -13
9 0 5 -10 13 -22 17 -13 3 -42 19 -66 35 -24 16 -47 29 -52 29 -5 0 -14 9 -20
20 -6 11 -17 20 -25 20 -20 0 -85 32 -85 42 0 4 -6 8 -14 8 -8 0 -16 7 -20 15
-3 8 -11 15 -18 15 -7 0 -19 9 -26 20 -7 11 -19 20 -28 20 -23 0 -124 59 -131
76 -3 8 -11 14 -19 14 -8 0 -14 4 -14 9 0 5 -16 12 -35 15 -19 4 -35 10 -35
14 0 4 -14 13 -30 21 -17 7 -47 28 -67 47 -20 19 -41 34 -48 34 -18 0 -105 50
-105 61 0 5 -7 9 -15 9 -8 0 -15 4 -15 9 0 5 -20 17 -45 28 -25 10 -45 21 -45
24 0 4 -13 12 -30 19 -16 7 -30 18 -30 24 0 6 -19 20 -43 30 -23 11 -56 30
-74 43 -17 13 -38 23 -46 23 -8 0 -17 6 -20 14 -6 15 -62 46 -83 46 -7 0 -17
6 -21 14 -5 8 -32 16 -68 20 -44 4 -51 3 -25 -3z"/>
<path d="M8290 1083 c1 -12 26 -43 35 -43 4 0 15 -8 24 -18 9 -10 32 -27 51
-38 19 -10 37 -21 40 -24 3 -3 21 -13 42 -24 20 -10 38 -26 41 -36 2 -10 33
-32 69 -49 35 -16 79 -44 96 -61 18 -16 34 -30 38 -30 3 0 12 -7 20 -15 9 -8
23 -15 33 -15 10 0 31 -12 47 -27 35 -33 122 -93 135 -93 14 0 47 -22 78 -50
16 -14 49 -36 75 -49 26 -13 60 -35 75 -50 36 -33 57 -48 103 -69 21 -9 38
-22 38 -28 0 -6 23 -21 50 -34 28 -13 56 -30 62 -37 6 -7 17 -13 25 -13 8 0
28 -12 43 -27 25 -23 99 -71 140 -90 8 -3 17 -9 20 -13 13 -15 135 -91 156
-96 13 -3 24 -12 24 -20 0 -19 33 -34 72 -34 l33 1 -27 17 c-16 9 -28 20 -28
24 0 5 -6 8 -13 8 -8 0 -24 11 -36 24 -13 13 -34 27 -47 30 -13 4 -24 11 -24
16 0 6 -7 10 -15 10 -9 0 -18 7 -21 15 -4 8 -12 15 -19 15 -6 0 -30 12 -51 28
-22 15 -56 35 -76 46 -20 10 -39 25 -42 32 -3 8 -15 14 -26 14 -11 0 -23 7
-26 15 -4 8 -10 15 -14 15 -17 0 -79 45 -80 58 0 6 -7 12 -16 12 -23 0 -112
53 -152 89 -18 17 -38 31 -43 31 -15 0 -108 64 -108 75 -1 10 -72 45 -91 45
-6 0 -10 4 -10 9 0 5 -8 12 -17 15 -40 15 -73 38 -73 52 0 7 -7 14 -15 14 -8
0 -15 5 -15 10 0 6 -8 10 -19 10 -10 0 -24 7 -31 15 -7 8 -21 15 -31 15 -10 0
-20 8 -23 18 -3 9 -46 40 -96 67 -49 27 -90 54 -90 60 0 10 -26 27 -62 41 -10
3 -18 10 -18 15 0 5 -6 9 -13 9 -7 0 -30 16 -50 35 -20 19 -41 35 -45 35 -14
0 -71 30 -77 41 -7 11 -25 12 -25 2z"/>
<path d="M12690 1075 c7 -8 18 -15 25 -15 7 0 28 -14 46 -31 19 -17 65 -47
103 -67 39 -20 79 -45 91 -57 20 -21 28 -26 132 -78 28 -14 62 -37 76 -51 13
-13 49 -36 81 -52 31 -15 56 -31 56 -35 0 -11 102 -75 133 -83 15 -4 37 -18
49 -31 12 -14 28 -25 35 -25 7 0 13 -3 13 -8 0 -7 16 -16 93 -52 15 -7 27 -17
27 -22 0 -4 4 -8 9 -8 5 0 33 -16 62 -35 30 -19 59 -35 66 -35 6 0 24 -11 39
-25 15 -14 33 -25 40 -25 7 0 14 -3 16 -7 4 -11 65 -53 76 -53 5 0 25 -13 43
-30 19 -16 41 -30 50 -30 9 0 22 -7 29 -15 7 -8 19 -15 26 -15 8 0 14 -4 14
-9 0 -5 14 -12 30 -16 17 -4 30 -11 30 -16 0 -5 21 -19 48 -32 26 -12 52 -27
59 -33 6 -6 26 -17 43 -24 18 -8 43 -24 56 -37 16 -15 35 -23 59 -23 22 0 34
4 30 10 -3 5 -12 10 -20 10 -8 0 -18 6 -22 13 -4 7 -27 21 -50 31 -24 11 -43
22 -43 25 0 3 -19 15 -41 26 -23 10 -44 25 -46 32 -3 7 -16 13 -28 13 -13 0
-26 4 -30 9 -3 6 -26 20 -51 33 -26 12 -49 28 -51 35 -3 7 -11 13 -19 13 -8 0
-14 4 -14 10 0 5 -16 12 -35 16 -19 3 -35 10 -35 14 0 5 -8 11 -18 14 -9 3
-32 19 -50 35 -17 16 -62 44 -99 63 -70 34 -79 39 -116 73 -12 11 -42 27 -66
35 -24 7 -45 20 -48 27 -3 7 -10 13 -17 13 -6 0 -24 12 -41 26 -16 14 -52 37
-80 51 -72 36 -87 45 -119 76 -16 15 -37 27 -46 27 -10 0 -23 7 -30 15 -7 8
-18 15 -24 15 -6 0 -23 13 -38 28 -14 16 -56 43 -92 61 -36 18 -71 37 -79 44
-24 22 -76 57 -86 57 -14 0 -71 34 -71 43 0 4 -7 7 -15 7 -8 0 -15 6 -15 13 0
6 -19 20 -43 31 -23 10 -54 25 -69 32 -36 19 -54 19 -38 -1z"/>
<path d="M12910 1082 c0 -4 17 -8 39 -8 96 -3 128 -14 178 -60 26 -24 65 -52
86 -61 20 -9 37 -20 37 -25 0 -4 7 -8 15 -8 8 0 15 -6 15 -14 0 -7 19 -26 43
-41 23 -16 54 -36 69 -47 15 -10 34 -18 42 -18 7 0 16 -7 19 -15 4 -8 41 -30
84 -51 43 -20 79 -40 81 -44 2 -4 46 -29 97 -56 52 -26 95 -51 95 -56 0 -4 9
-8 20 -8 11 0 20 -3 20 -7 0 -5 18 -17 40 -27 22 -11 40 -23 40 -28 0 -4 9 -8
19 -8 11 0 26 -8 33 -18 13 -17 74 -54 156 -91 23 -11 42 -24 42 -29 0 -5 38
-28 85 -52 47 -24 85 -46 85 -50 0 -4 18 -15 40 -26 22 -10 40 -22 40 -26 0
-5 6 -8 14 -8 7 0 25 -9 39 -20 14 -11 32 -20 40 -20 8 0 17 -7 21 -15 3 -8
12 -15 19 -15 8 0 22 -9 32 -20 17 -18 92 -60 109 -60 4 0 15 -9 24 -21 11
-13 33 -22 62 -25 36 -4 40 -2 22 6 -12 5 -25 16 -28 25 -4 8 -12 15 -20 15
-8 0 -32 11 -54 25 -22 14 -44 25 -50 25 -5 0 -10 5 -10 10 0 6 -7 10 -15 10
-8 0 -20 9 -27 20 -7 11 -20 20 -28 20 -9 0 -21 5 -27 11 -14 14 -45 32 -105
61 -27 13 -48 29 -48 36 0 6 -9 12 -19 12 -11 0 -26 6 -33 13 -7 6 -29 21 -48
31 -19 11 -43 27 -53 37 -9 10 -35 24 -57 30 -22 7 -45 18 -51 26 -6 7 -17 13
-23 13 -7 0 -25 13 -42 29 -16 15 -40 32 -54 36 -34 10 -118 64 -128 82 -5 8
-24 20 -43 26 -51 19 -99 46 -99 57 0 6 -7 10 -15 10 -7 0 -18 6 -22 13 -7 13
-21 21 -105 63 -18 9 -44 28 -57 41 -13 14 -57 41 -98 61 -41 19 -77 42 -80
50 -3 7 -15 18 -27 23 -11 5 -43 23 -71 39 -27 17 -57 34 -65 37 -8 4 -21 14
-27 24 -7 9 -30 24 -52 32 -22 9 -42 21 -46 27 -7 12 -175 14 -175 2z"/>
<path d="M6590 936 c0 -111 3 -136 14 -136 8 0 16 -4 18 -9 2 -5 22 -12 46
-16 l42 -7 0 146 c0 145 0 146 -22 146 -13 0 -40 3 -60 6 l-38 7 0 -137z"/>
<path d="M13290 1030 c18 -16 36 -30 41 -30 5 0 9 -4 9 -8 0 -5 17 -16 38 -25
20 -8 44 -18 52 -22 27 -11 54 -30 81 -55 15 -14 58 -41 95 -60 38 -18 76 -42
84 -51 8 -9 42 -32 75 -50 33 -17 62 -35 65 -38 11 -14 70 -51 80 -51 6 0 13
-6 16 -14 3 -8 17 -17 30 -20 14 -4 34 -18 46 -31 12 -14 30 -25 39 -25 10 0
21 -5 24 -10 3 -6 26 -19 50 -30 24 -11 51 -27 59 -36 19 -19 81 -54 149 -85
26 -12 47 -27 47 -33 0 -6 22 -21 50 -34 27 -12 52 -27 55 -32 3 -6 15 -10 26
-10 11 0 22 -7 25 -15 4 -8 12 -15 19 -15 7 0 15 -3 17 -7 4 -11 56 -45 103
-68 22 -11 43 -24 46 -28 7 -10 30 -23 119 -69 36 -18 74 -41 84 -50 25 -23
36 -23 36 1 0 12 -13 25 -35 35 -19 9 -37 21 -40 26 -3 6 -13 10 -21 10 -15 0
-76 39 -82 53 -2 4 -9 7 -15 7 -7 0 -36 16 -64 35 -29 19 -56 35 -62 35 -5 0
-19 11 -32 25 -13 13 -29 25 -36 25 -7 0 -32 14 -56 30 -25 17 -52 30 -61 30
-9 0 -16 6 -16 14 0 7 -21 23 -47 35 -64 30 -90 45 -116 67 -12 11 -48 33 -80
49 -100 51 -108 56 -114 71 -3 8 -11 14 -19 14 -18 0 -106 49 -120 66 -6 8
-16 14 -22 14 -6 0 -16 9 -22 20 -6 11 -17 20 -25 20 -8 0 -15 5 -15 10 0 6
-11 10 -24 10 -13 0 -29 7 -36 15 -7 8 -18 15 -24 15 -7 0 -22 10 -34 23 -34
36 -47 45 -90 58 -22 6 -55 26 -74 43 -33 31 -60 49 -88 62 -61 26 -78 35 -97
53 -29 27 -90 61 -109 61 -11 0 -6 -10 16 -30z"/>
<path d="M13494 1006 c21 -19 67 -49 102 -67 35 -17 64 -38 64 -45 0 -8 7 -14
15 -14 8 0 15 -4 15 -8 0 -5 19 -17 43 -28 45 -20 48 -22 90 -59 15 -14 35
-25 43 -25 7 0 14 -4 14 -9 0 -5 13 -14 29 -19 16 -6 39 -20 50 -31 20 -20
117 -73 189 -102 17 -8 32 -19 32 -25 0 -6 15 -17 33 -25 17 -7 34 -15 37 -18
10 -11 50 -31 62 -31 7 0 29 -14 48 -30 32 -28 149 -90 170 -90 5 0 14 -9 20
-20 6 -11 15 -20 20 -20 5 0 29 -13 53 -30 25 -16 49 -30 54 -30 6 0 23 -12
39 -26 16 -14 38 -30 49 -35 11 -5 38 -20 60 -34 22 -13 46 -24 53 -25 6 0 21
-9 32 -20 11 -11 25 -20 30 -20 18 0 11 35 -9 45 -10 6 -43 22 -72 37 -30 15
-67 39 -83 53 -16 14 -37 25 -48 25 -10 0 -18 4 -18 9 0 5 -13 14 -30 21 -16
7 -30 16 -30 21 0 5 -9 9 -20 9 -11 0 -23 7 -27 16 -3 9 -24 25 -47 35 -90 43
-142 73 -154 91 -7 10 -21 18 -30 19 -9 0 -30 9 -47 19 -16 11 -45 27 -62 36
-18 9 -33 20 -33 24 0 4 -12 12 -27 18 -50 18 -58 22 -88 42 -16 11 -42 25
-57 31 -16 6 -28 15 -28 19 0 10 -57 40 -74 40 -6 0 -19 9 -29 20 -9 11 -24
20 -32 20 -8 0 -15 6 -15 13 0 7 -12 18 -27 25 -69 31 -126 70 -184 125 -11 9
-25 17 -33 17 -18 0 -76 32 -76 43 0 4 -5 7 -10 7 -6 0 -20 9 -32 20 -12 11
-31 20 -42 20 -18 0 -15 -6 18 -34z"/>
<path d="M13615 1030 c3 -5 15 -10 25 -10 10 0 20 -4 22 -9 5 -13 79 -61 95
-61 14 0 20 -3 67 -45 16 -14 35 -25 42 -25 8 0 14 -4 14 -8 0 -5 20 -18 43
-30 24 -12 58 -35 75 -52 18 -16 36 -30 41 -30 16 0 126 -62 134 -76 4 -8 15
-14 22 -14 8 0 15 -4 15 -9 0 -5 16 -15 35 -21 19 -6 35 -15 35 -20 0 -4 13
-10 29 -13 16 -4 40 -17 53 -30 26 -28 112 -77 133 -77 8 0 20 -9 27 -20 7
-11 17 -20 21 -20 5 0 26 -13 46 -29 20 -16 55 -34 79 -41 23 -7 42 -19 42
-26 0 -7 9 -16 20 -19 11 -3 26 -12 33 -18 20 -19 74 -47 91 -47 8 0 19 -6 23
-13 8 -12 57 -47 68 -47 3 0 5 7 5 15 0 8 -4 15 -10 15 -5 0 -10 7 -10 15 0 8
-7 15 -15 15 -24 0 -136 62 -146 82 -5 10 -14 18 -19 18 -23 0 -136 61 -150
81 -8 11 -38 31 -66 44 -28 12 -55 28 -58 34 -4 6 -16 11 -26 11 -10 0 -25 8
-32 18 -7 10 -37 31 -67 45 -29 15 -65 36 -78 47 -14 11 -31 20 -38 20 -7 0
-15 6 -18 13 -3 7 -34 27 -68 45 -35 17 -72 40 -81 51 -10 12 -25 21 -33 21
-8 0 -15 4 -15 8 0 4 -17 14 -37 21 -21 8 -52 28 -69 45 -29 30 -57 46 -134
80 -19 8 -50 29 -68 45 -24 22 -43 31 -68 31 -21 0 -33 -4 -29 -10z"/>
<path d="M14007 981 c29 -9 55 -20 59 -24 4 -4 14 -7 21 -7 16 0 74 -39 86
-57 4 -7 15 -13 22 -13 8 0 15 -4 15 -9 0 -4 21 -16 48 -26 26 -10 54 -24 63
-31 8 -8 18 -14 21 -14 3 0 20 -13 38 -30 17 -16 50 -35 72 -41 22 -5 50 -21
63 -35 12 -13 26 -24 30 -24 4 0 24 -13 45 -30 21 -16 47 -30 58 -30 10 0 30
-10 43 -23 44 -42 121 -87 150 -87 10 0 24 -8 31 -18 13 -17 62 -52 73 -52 3
0 5 7 5 15 0 8 -4 15 -10 15 -5 0 -10 7 -10 15 0 9 -12 18 -30 22 -16 3 -30 9
-30 14 0 5 -7 9 -15 9 -18 0 -95 47 -95 58 0 8 -48 32 -66 32 -6 0 -17 7 -24
15 -7 8 -20 15 -29 15 -9 0 -28 12 -41 28 -31 34 -67 57 -102 66 -16 3 -28 11
-28 16 0 6 -9 10 -19 10 -11 0 -26 8 -33 18 -16 21 -40 36 -94 61 -23 11 -45
24 -48 30 -4 6 -16 11 -26 11 -11 0 -24 9 -30 20 -6 11 -17 20 -24 20 -8 0
-19 7 -26 15 -7 8 -21 15 -31 15 -32 0 -21 18 14 23 20 2 10 4 -25 5 -31 1
-60 7 -63 12 -3 6 -30 10 -58 9 l-52 -1 52 -17z"/>
<path d="M13885 980 c-3 -5 1 -10 9 -10 9 0 16 -4 16 -8 0 -5 18 -17 40 -28
22 -10 40 -24 40 -29 0 -10 44 -35 120 -69 19 -9 49 -28 65 -42 17 -15 62 -42
101 -60 40 -19 74 -41 78 -49 3 -8 10 -15 16 -15 6 0 26 -11 43 -24 18 -14 44
-27 58 -31 14 -3 41 -19 60 -36 19 -16 39 -29 45 -29 6 0 19 -9 28 -19 10 -11
30 -23 46 -26 15 -3 37 -15 48 -25 12 -11 25 -20 31 -20 5 0 11 -3 13 -7 6
-15 64 -50 103 -63 22 -7 50 -24 62 -36 28 -31 43 -30 43 1 0 14 -4 25 -10 25
-21 0 -137 61 -170 90 -19 16 -40 30 -47 30 -16 0 -73 33 -73 43 0 4 -7 7 -15
7 -9 0 -27 11 -40 24 -13 13 -45 34 -72 47 -26 12 -50 25 -53 29 -3 3 -20 12
-37 19 -18 8 -33 19 -33 25 0 6 -15 17 -32 24 -18 7 -40 18 -48 23 -8 5 -25
13 -38 19 -12 5 -25 17 -28 25 -4 8 -15 15 -25 15 -10 0 -19 4 -19 9 0 5 -21
18 -47 31 -83 38 -103 51 -103 66 0 7 -6 14 -13 14 -8 0 -44 16 -80 35 -73 39
-73 39 -82 25z"/>
<path d="M14210 970 c0 -5 12 -12 28 -16 41 -9 93 -37 103 -56 5 -10 15 -18
21 -18 6 0 19 -6 27 -13 9 -8 37 -21 62 -30 25 -10 56 -27 70 -40 36 -34 83
-64 123 -78 20 -7 36 -18 36 -24 0 -5 22 -22 48 -37 26 -16 54 -32 62 -37 8
-5 28 -15 45 -22 16 -8 37 -22 47 -31 10 -10 25 -18 33 -18 8 0 15 -4 15 -10
0 -5 5 -10 10 -10 6 0 10 7 10 15 0 8 -4 15 -10 15 -5 0 -10 6 -10 13 0 12
-44 37 -66 37 -7 0 -33 14 -57 30 -25 17 -50 30 -56 30 -6 0 -11 6 -11 13 0
13 -46 40 -87 52 -12 3 -38 21 -59 41 -21 19 -72 51 -114 71 -41 20 -82 43
-90 50 -8 7 -26 22 -40 33 l-25 19 52 1 c28 0 54 -4 58 -9 3 -5 19 -12 35 -16
17 -4 30 -12 30 -20 0 -7 14 -18 30 -25 17 -7 30 -15 30 -19 0 -3 19 -14 43
-23 23 -10 58 -31 77 -48 19 -16 41 -30 48 -30 6 0 12 -4 12 -8 0 -8 92 -52
109 -52 5 0 11 -6 14 -12 2 -7 23 -23 46 -36 41 -23 41 -23 41 -3 0 12 -7 21
-15 21 -9 0 -18 7 -21 15 -7 17 -59 45 -84 45 -10 0 -23 7 -30 15 -7 8 -19 15
-26 15 -8 0 -19 9 -26 20 -7 11 -18 20 -25 20 -7 0 -13 4 -13 8 0 10 -65 42
-85 42 -8 0 -15 4 -15 9 0 5 -10 13 -22 17 -12 3 -37 22 -56 40 -19 19 -41 34
-48 34 -7 0 -14 4 -16 9 -4 13 -258 24 -258 11z"/>
<path d="M5003 862 c-29 -3 -33 -7 -33 -32 0 -15 -4 -30 -8 -32 -5 -1 -12 -44
-15 -94 -6 -83 -5 -94 14 -115 20 -23 26 -24 151 -24 l130 0 1 141 2 142 -55
6 c-70 9 -146 12 -187 8z"/>
<path d="M5277 768 c-9 -111 -8 -170 2 -186 5 -8 33 -15 67 -17 32 -2 103 -7
157 -10 l97 -6 0 30 c0 16 -5 33 -11 37 -7 4 -9 42 -4 120 l7 114 -154 0 -155
0 -6 -82z"/>
<path d="M6110 93 c-19 -2 -64 -7 -100 -12 -36 -6 -101 -16 -145 -22 -44 -7
-82 -15 -85 -19 -3 -4 -25 -14 -50 -23 -43 -15 -37 -15 188 -16 l232 -1 0 25
c0 35 37 35 46 0 l6 -25 197 1 c108 1 184 4 170 6 -21 3 -26 9 -22 24 6 21
-12 27 -20 7 -4 -10 -7 -10 -14 -1 -17 24 -93 43 -148 37 -34 -4 -60 -2 -76 7
-23 12 -100 17 -179 12z"/>
</g>
</svg>
